<svg version="1.2" xmlns="http://www.w3.org/2000/svg" viewBox="0 0 20 20" width="20" height="20">
	<title>link-svg</title>
	<style>
		.s0 { fill: #ff1493 } 
	</style>
	<path id="Layer" fill-rule="evenodd" class="s0" d="m12.8 7.2c2.3 2.4 2.3 6.1 0 8.4q0 0 0 0l-2.7 2.7c-2.3 2.3-6 2.3-8.4 0-2.3-2.4-2.3-6.1 0-8.4l1.5-1.5c0.4-0.4 1-0.1 1.1 0.4q0 1.1 0.3 2.1c0.1 0.2 0.1 0.5-0.1 0.6l-0.5 0.6c-1.1 1-1.2 2.8-0.1 3.9 1.1 1.2 2.9 1.2 4 0.1l2.6-2.7c1.1-1.1 1.1-2.9 0-3.9q-0.2-0.3-0.4-0.4 0 0-0.1-0.1 0 0 0-0.1-0.1-0.1-0.1-0.1 0-0.1 0-0.2c0-0.4 0.1-0.8 0.4-1.1l0.9-0.9c0.2-0.2 0.5-0.2 0.8 0q0.1 0 0.2 0.1 0.1 0.1 0.2 0.2 0.1 0.1 0.2 0.2 0.1 0 0.2 0.1zm5.5 2.9l-1.5 1.5c-0.4 0.4-1 0.1-1.1-0.4q0-1.1-0.3-2.1c-0.1-0.2-0.1-0.5 0.1-0.6l0.5-0.6c1.1-1 1.2-2.8 0.1-3.9-1.1-1.2-2.9-1.2-4-0.1l-2.6 2.7c-1.1 1.1-1.1 2.9 0 3.9q0.2 0.3 0.4 0.4 0 0 0.1 0.1 0 0 0 0.1 0.1 0.1 0.1 0.1 0 0.1 0 0.2c0 0.4-0.1 0.8-0.4 1.1l-0.9 0.9c-0.2 0.2-0.5 0.2-0.8 0q-0.1 0-0.2-0.1-0.1-0.1-0.2-0.2-0.1-0.1-0.2-0.2-0.1 0-0.2-0.1c-2.3-2.4-2.3-6.1 0-8.4q0 0 0 0l2.7-2.7c2.3-2.3 6-2.3 8.4 0 2.3 2.4 2.3 6.1 0 8.4z"/>
</svg>