<?xml version="1.0" encoding="utf-8"?>
<!-- Generator: Adobe Illustrator 27.0.0, SVG Export Plug-In . SVG Version: 6.00 Build 0)  -->
<svg version="1.1" id="图层_1" xmlns="http://www.w3.org/2000/svg" xmlns:xlink="http://www.w3.org/1999/xlink" x="0px" y="0px"
	 width="20px" height="20px" viewBox="0 0 20 20" style="enable-background:new 0 0 20 20;" xml:space="preserve">
<style type="text/css">
	.st0{fill:#FF4500;}
</style>
<path class="st0" d="M3.3,1.9H0.5C0.2,1.9,0,2.1,0,2.4v2.7c0,0.3,0.2,0.5,0.5,0.5h2.7c0.3,0,0.5-0.2,0.5-0.5V2.4
	C3.8,2.1,3.6,1.9,3.3,1.9z"/>
<path class="st0" d="M3.3,8.1H0.5C0.2,8.1,0,8.4,0,8.6v2.7c0,0.3,0.2,0.5,0.5,0.5h2.7c0.3,0,0.5-0.2,0.5-0.5V8.6
	C3.8,8.4,3.6,8.1,3.3,8.1z"/>
<path class="st0" d="M3.3,14.4H0.5c-0.3,0-0.5,0.2-0.5,0.5v2.7c0,0.3,0.2,0.5,0.5,0.5h2.7c0.3,0,0.5-0.2,0.5-0.5v-2.7
	C3.8,14.6,3.6,14.4,3.3,14.4z"/>
<rect x="6.3" y="2.5" class="st0" width="13.7" height="2.5"/>
<rect x="6.3" y="8.8" class="st0" width="13.7" height="2.5"/>
<rect x="6.3" y="15" class="st0" width="13.7" height="2.5"/>
</svg>
