<?xml version="1.0" encoding="utf-8"?>
<!-- Generator: Adobe Illustrator 27.0.0, SVG Export Plug-In . SVG Version: 6.00 Build 0)  -->
<svg version="1.1" id="图层_1" xmlns="http://www.w3.org/2000/svg" xmlns:xlink="http://www.w3.org/1999/xlink" x="0px" y="0px"
	 width="20px" height="20px" viewBox="0 0 20 20" style="enable-background:new 0 0 20 20;" xml:space="preserve">
<style type="text/css">
	.st0{fill-rule:evenodd;clip-rule:evenodd;fill:#999999;}
</style>
<path id="Layer" class="st0" d="M10,20C4.5,20,0,15.5,0,10S4.5,0,10,0s10,4.5,10,10S15.5,20,10,20z M11.7,6.1c0-0.9-0.8-1.7-1.7-1.7
	S8.3,5.2,8.3,6.1c0,1,0.8,1.7,1.7,1.7S11.7,7.1,11.7,6.1z M12.3,13.7c0-0.3-0.3-0.5-0.5-0.5h-0.5v-4c0-0.3-0.2-0.5-0.5-0.5H8.2
	C8,8.7,7.7,8.9,7.7,9.2v1c0,0.2,0.3,0.4,0.5,0.4h0.5v2.6H8.2c-0.2,0-0.5,0.2-0.5,0.5v1c0,0.2,0.3,0.5,0.5,0.5h3.6
	c0.2,0,0.5-0.3,0.5-0.5L12.3,13.7z"/>
</svg>
