<svg version="1.2" xmlns="http://www.w3.org/2000/svg" viewBox="0 0 512 512" width="20" height="20">
	<title>unlink-svg</title>
	<style>
		.s0 { fill: #ff1493 } 
	</style>
	<path id="Layer" fill-rule="evenodd" class="s0" d="m304.1 405.9c4.7 4.7 4.7 12.3 0 17l-44.7 44.7c-59.3 59.2-155.7 59.2-215 0-59.2-59.3-59.2-155.7 0-215l44.7-44.7c4.7-4.7 12.3-4.7 17 0l39.6 39.6c4.7 4.7 4.7 12.3 0 17l-44.7 44.7c-28.1 28-28.1 73.7 0 101.8 28.1 28.1 73.8 28.1 101.8 0l44.7-44.7c4.7-4.7 12.3-4.7 17 0zm-56.6-260.2c4.7 4.7 12.3 4.7 17 0l44.7-44.7c28-28.1 73.7-28.1 101.8 0 28.1 28.1 28.1 73.8 0 101.8l-44.7 44.7c-4.7 4.7-4.7 12.3 0 17l39.6 39.6c4.7 4.7 12.3 4.7 17 0l44.7-44.7c59.2-59.3 59.2-155.7 0-215-59.3-59.2-155.7-59.2-215 0l-44.7 44.7c-4.7 4.7-4.7 12.3 0 17zm234.8 359.3l22.7-22.7c9.3-9.3 9.3-24.5 0-33.9l-441.4-441.4c-9.4-9.3-24.6-9.3-33.9 0l-22.7 22.7c-9.3 9.3-9.3 24.5 0 33.9l441.4 441.4c9.4 9.3 24.6 9.3 33.9 0z"/>
</svg>