<svg version="1.2" xmlns="http://www.w3.org/2000/svg" viewBox="0 0 25 20" width="25" height="20">
	<title>code-svg</title>
	<style>
		.s0 { fill: #40e0d0 } 
	</style>
	<path id="Layer" fill-rule="evenodd" class="s0" d="m10.4 20l-2.4-0.7c-0.2-0.1-0.4-0.3-0.3-0.6l5.3-18.4c0.1-0.2 0.4-0.4 0.6-0.3l2.4 0.7c0.2 0.1 0.4 0.3 0.3 0.6l-5.3 18.4c-0.1 0.2-0.4 0.4-0.6 0.3zm-5.1-4.4l-5.7-5.3c-0.2-0.1-0.2-0.5 0-0.6l5.7-5.3c0.2-0.2 0.5-0.2 0.6 0l1.7 1.8c0.2 0.2 0.2 0.5 0 0.7l-3.5 3.1 3.5 3.1c0.2 0.2 0.2 0.5 0 0.7l-1.7 1.8c-0.1 0.2-0.4 0.2-0.6 0zm12.8 0l-1.7-1.8c-0.2-0.2-0.2-0.5 0-0.7l3.5-3.1-3.5-3.1c-0.2-0.2-0.2-0.5 0-0.7l1.7-1.8c0.1-0.2 0.4-0.2 0.6 0l5.7 5.3c0.2 0.1 0.2 0.5 0 0.6l-5.7 5.3c-0.2 0.2-0.5 0.2-0.6 0z"/>
</svg>