<svg version="1.2" xmlns="http://www.w3.org/2000/svg" viewBox="0 0 20 20" width="20" height="20">
	<title>exclamation-circle-svg</title>
	<style>
		.s0 { fill: #ff6347 } 
	</style>
	<path id="Layer" fill-rule="evenodd" class="s0" d="m10 20c-5.5 0-10-4.5-10-10 0-5.5 4.5-10 10-10 5.5 0 10 4.5 10 10 0 5.5-4.5 10-10 10zm1.9-6.1c0-1.1-0.9-1.9-1.9-1.9-1 0-1.9 0.8-1.9 1.9 0 1 0.9 1.8 1.9 1.8 1 0 1.9-0.8 1.9-1.8zm-3.7-8.6l0.3 5.5c0.1 0.3 0.3 0.5 0.5 0.5h2c0.2 0 0.4-0.2 0.5-0.5l0.3-5.5c0-0.2-0.2-0.5-0.5-0.5h-2.6c-0.3 0-0.5 0.3-0.5 0.5z"/>
</svg>