<svg version="1.2" xmlns="http://www.w3.org/2000/svg" viewBox="0 0 20 20" width="20" height="20">
	<title>info-circle-svg</title>
	<style>
		.s0 { fill: #00bfff } 
	</style>
	<path id="Layer" fill-rule="evenodd" class="s0" d="m10 20c-5.5 0-10-4.5-10-10 0-5.5 4.5-10 10-10 5.5 0 10 4.5 10 10 0 5.5-4.5 10-10 10zm1.7-13.9c0-0.9-0.8-1.7-1.7-1.7-0.9 0-1.7 0.8-1.7 1.7 0 1 0.8 1.7 1.7 1.7 0.9 0 1.7-0.7 1.7-1.7zm0.6 7.6c0-0.3-0.3-0.5-0.5-0.5h-0.5v-4c0-0.3-0.2-0.5-0.5-0.5h-2.6c-0.2 0-0.5 0.2-0.5 0.5v1c0 0.2 0.3 0.4 0.5 0.4h0.5v2.6h-0.5c-0.2 0-0.5 0.2-0.5 0.5v1c0 0.2 0.3 0.5 0.5 0.5h3.6c0.2 0 0.5-0.3 0.5-0.5z"/>
</svg>