<svg version="1.2" xmlns="http://www.w3.org/2000/svg" viewBox="0 0 26 20" width="26" height="20">
	<title>list-svg</title>
	<style>
		.s0 { fill: #ff4500 } 
	</style>
	<path id="Layer" class="s0" d="m4.8 15.4q0.2 0.1 0.3 0.2 0.1 0.1 0.1 0.3 0.1 0.1 0.1 0.3v3q0 0.2-0.1 0.3 0 0.2-0.1 0.3-0.1 0.1-0.3 0.1-0.1 0.1-0.3 0.1h-3q-0.2 0-0.3-0.1-0.2 0-0.3-0.1-0.1-0.1-0.1-0.3-0.1-0.1-0.1-0.3v-3q0-0.2 0.1-0.3 0-0.2 0.1-0.3 0.1-0.1 0.3-0.2 0.1 0 0.3 0h3q0.2 0 0.3 0zm0-15.3q0.2 0 0.3 0.1 0.1 0.1 0.1 0.3 0.1 0.1 0.1 0.3v3q0 0.2-0.1 0.3 0 0.2-0.1 0.3-0.1 0.1-0.3 0.2-0.1 0-0.3 0h-3q-0.2 0-0.3 0-0.2-0.1-0.3-0.2-0.1-0.1-0.1-0.3-0.1-0.1-0.1-0.3v-3q0-0.2 0.1-0.3 0-0.2 0.1-0.3 0.1-0.1 0.3-0.1 0.1-0.1 0.3-0.1h3q0.2 0 0.3 0.1zm0 7.7q0.2 0 0.3 0.1 0.1 0.1 0.1 0.3 0.1 0.1 0.1 0.3v3q0 0.2-0.1 0.3 0 0.2-0.1 0.3-0.1 0.1-0.3 0.1-0.1 0.1-0.3 0.1h-3q-0.2 0-0.3-0.1-0.2 0-0.3-0.1-0.1-0.1-0.1-0.3-0.1-0.1-0.1-0.3v-3q0-0.2 0.1-0.3 0-0.2 0.1-0.3 0.1-0.1 0.3-0.1 0.1-0.1 0.3-0.1h3q0.2 0 0.3 0.1zm20 8.4q0.2 0.1 0.3 0.2 0.1 0.1 0.1 0.2 0.1 0.2 0.1 0.3v1.6q0 0.1-0.1 0.3 0 0.1-0.1 0.2-0.1 0.1-0.3 0.2-0.1 0-0.3 0h-15.3q-0.2 0-0.3 0-0.2-0.1-0.3-0.2-0.1-0.1-0.2-0.2 0-0.2 0-0.3v-1.6q0-0.1 0-0.3 0.1-0.1 0.2-0.2 0.1-0.1 0.3-0.2 0.1 0 0.3 0h15.3q0.2 0 0.3 0zm0-15.4q0.2 0.1 0.3 0.2 0.1 0.1 0.1 0.2 0.1 0.2 0.1 0.3v1.6q0 0.1-0.1 0.3 0 0.1-0.1 0.2-0.1 0.1-0.3 0.2-0.1 0-0.3 0h-15.3q-0.2 0-0.3 0-0.2-0.1-0.3-0.2-0.1-0.1-0.2-0.2 0-0.2 0-0.3v-1.6q0-0.1 0-0.3 0.1-0.1 0.2-0.2 0.1-0.1 0.3-0.2 0.1 0 0.3 0h15.3q0.2 0 0.3 0zm0 7.7q0.2 0.1 0.3 0.2 0.1 0.1 0.1 0.2 0.1 0.2 0.1 0.3v1.6q0 0.1-0.1 0.3 0 0.1-0.1 0.2-0.1 0.1-0.3 0.2-0.1 0-0.3 0h-15.3q-0.2 0-0.3 0-0.2-0.1-0.3-0.2-0.1-0.1-0.2-0.2 0-0.2 0-0.3v-1.6q0-0.1 0-0.3 0.1-0.1 0.2-0.2 0.1-0.1 0.3-0.2 0.1 0 0.3 0h15.3q0.2 0 0.3 0z"/>
</svg>