<svg id="图层_1" data-name="图层 1" xmlns="http://www.w3.org/2000/svg" width="20" height="20" viewBox="0 0 20 20"><defs><style>.cls-1{fill:#0bd36f;}</style></defs><path class="cls-1" d="M10,0A10,10,0,1,0,20,10,10,10,0,0,0,10,0Zm0,15.62a1.23,1.23,0,0,1-1.25-1.21v0a1.23,1.23,0,0,1,1.18-1.26H10a1.25,1.25,0,0,1,0,2.5Zm2.7-5.54-1.76,1.09v.08a.94.94,0,0,1-1.88,0v-.63a1,1,0,0,1,.47-.82l2.23-1.32a.85.85,0,0,0,.43-.75.9.9,0,0,0-.9-.85h-2a.85.85,0,0,0-.86.82v0a.94.94,0,1,1-1.88,0A2.71,2.71,0,0,1,9.24,5h2a2.73,2.73,0,0,1,2.8,2.66v.07A2.75,2.75,0,0,1,12.7,10.08Z"/></svg>