<svg version="1.2" xmlns="http://www.w3.org/2000/svg" viewBox="0 0 24 20" width="24" height="20">
	<title>exclamation-triangle-svg</title>
	<style>
		.s0 { fill: #ffd700 } 
	</style>
	<path id="Layer" fill-rule="evenodd" class="s0" d="m23 17.2c0.7 1.2-0.2 2.8-1.6 2.8h-18.8c-1.4 0-2.3-1.6-1.6-2.8l9.4-16.3c0.7-1.2 2.5-1.2 3.2 0zm-9.2-1.5c0-1-0.8-1.8-1.8-1.8-1 0-1.8 0.8-1.8 1.8 0 1 0.8 1.8 1.8 1.8 1 0 1.8-0.8 1.8-1.8zm-3.5-8.3l0.3 5.3c0 0.3 0.2 0.5 0.5 0.5h1.9c0.2 0 0.4-0.2 0.4-0.5l0.3-5.3c0-0.3-0.2-0.5-0.4-0.5h-2.5c-0.3 0-0.5 0.2-0.5 0.5z"/>
</svg>