<svg version="1.2" xmlns="http://www.w3.org/2000/svg" viewBox="0 0 128 128" width="20" height="20">
	<title>microsoft_office_excel_logo_icon_145720-svg</title>
	<style>
		.s0 { fill: #21a365 } 
		.s1 { fill: #107c41 } 
		.s2 { fill: #185b37 } 
		.s3 { fill: #33c481 } 
		.s4 { fill: #17864c } 
		.s5 { fill: #ffffff } 
		.s6 { opacity: .2;fill: #000000 } 
	</style>
	<path id="Layer" class="s0" d="m78.7 34.2h49.3v29.8h-49.3z"/>
	<path id="Layer" class="s1" d="m78.7 64h49.3v29.8h-49.3z"/>
	<path id="Layer" class="s1" d="m29.5 34.2h49.2v29.8h-49.2z"/>
	<path id="Layer" class="s2" d="m127.9 93.8v23.9c0 3.2-2.6 5.8-5.8 5.8h-86.7c-3.2 0-5.8-2.6-5.8-5.8v-19.6-4.3-29.8h49.1v29.8z"/>
	<path id="Layer" class="s3" d="m128 10.3v24h-49.4v-29.8h43.5c3.2 0 5.8 2.6 5.9 5.8z"/>
	<path id="Layer" class="s0" d="m78.8 4.5v29.7h-49.1v-23.9c0-3.2 2.6-5.8 5.8-5.8h43.2z"/>
	<path id="Layer" class="s4" d="m59.5 96.5h-53c-3.5 0-6.4-2.9-6.4-6.4v-52.2c0-3.5 2.9-6.4 6.4-6.4h53c3.5 0 6.4 2.9 6.4 6.4v52.2c0 3.5-2.8 6.4-6.4 6.4z"/>
	<g id="Layer">
		<path id="Layer" class="s5" d="m40.5 82.4l-3.9-7.1c-1.6-2.8-2.6-4.7-3.7-6.8h-0.1c-0.9 2.1-1.8 4-3.3 6.8l-3.5 7.1h-7.6l10.8-18.1-10.5-17.8h7.7l3.9 7.4c1.2 2.2 2.1 4 3 6h0.2c1-2.2 1.7-3.8 2.9-6l3.9-7.4h7.6l-10.7 17.5 11.1 18.4z"/>
	</g>
	<path id="Layer" class="s6" d="m72 43.6v52.2c0 3.5-2.9 6.4-6.4 6.4h-35.2v-5.7h29.9c3.5 0 6.4-2.9 6.4-6.4v-52.2q0-0.3 0-0.6c3 0.4 5.4 3.1 5.3 6.3z"/>
</svg>