<svg version="1.2" xmlns="http://www.w3.org/2000/svg" viewBox="0 0 128 128" width="20" height="20">
	<title>microsoft_power_point_office_logo_icon_145723-svg</title>
	<style>
		.s0 { fill: #c8421d } 
		.s1 { fill: #ff8f6a } 
		.s2 { fill: #ed6b47 } 
		.s3 { fill: #ffffff } 
		.s4 { opacity: .2;fill: #000000 } 
	</style>
	<path id="Layer" class="s0" d="m12.3 64.3h116c0 32-26 58-58 58-32 0-58-25.9-58-58z"/>
	<path id="Layer" class="s1" d="m128.3 64.3h-58v-58c32.1 0 58 26 58 58z"/>
	<path id="Layer" class="s2" d="m70.4 6.3v58h-58c0-32 26-58 58-58z"/>
	<path id="Layer" class="s0" d="m59.3 96.5h-53c-3.5 0-6.4-2.9-6.4-6.4v-52.2c0-3.5 2.9-6.4 6.4-6.4h53c3.5 0 6.4 2.9 6.4 6.4v52.2c0 3.5-2.9 6.4-6.4 6.4z"/>
	<g id="Layer">
		<path id="Layer" fill-rule="evenodd" class="s3" d="m28.3 68.6v13.7h-7.7v-37.8h15.3c4.4 0 7.9 1.1 10.4 3.3 2.5 2.2 3.8 5.1 3.8 8.8 0 3.6-1.3 6.5-3.8 8.7-2.5 2.2-6 3.3-10.4 3.3zm7.6-5.8c2.1 0 3.8-0.6 4.9-1.7 1.1-1.2 1.7-2.6 1.7-4.4 0-1.8-0.5-3.3-1.6-4.5-1.1-1.2-2.7-1.8-4.9-1.8h-7.6v12.4z"/>
	</g>
	<path id="Layer" class="s4" d="m70.8 43.6v52.2c0 3.5-2.9 6.4-6.4 6.4h-38.3l-3.8-5.7h36.8c3.5 0 6.4-2.9 6.4-6.4v-52.2q0-0.3 0-0.6c3.1 0.4 5.4 3.1 5.3 6.3z"/>
</svg>