<?xml version="1.0" encoding="utf-8"?>
<!-- Generator: Adobe Illustrator 24.3.0, SVG Export Plug-In . SVG Version: 6.00 Build 0)  -->
<svg version="1.1" id="Layer_1" xmlns="http://www.w3.org/2000/svg" xmlns:xlink="http://www.w3.org/1999/xlink" x="0px" y="0px"
	 width="30px" height="20px" viewBox="0 0 30 20" style="enable-background:new 0 0 30 20;" xml:space="preserve">
<style type="text/css">
	.st0{fill:#FFFFFF;}
	.st1{fill:#C60C30;}
	.st2{fill:#003478;}
</style>
<rect id="_19" class="st0" width="30" height="20"/>
<rect id="_18" x="4.9" y="3.2" transform="matrix(0.5547 -0.8321 0.8321 0.5547 -0.8067 8.3234)" width="5" height="3.3"/>
<rect id="_17" x="3.9" y="4.4" transform="matrix(0.5547 -0.8321 0.8321 0.5547 -0.7496 7.7361)" class="st0" width="5.8" height="0.4"/>
<rect id="_16" x="5" y="5.1" transform="matrix(0.5547 -0.8321 0.8321 0.5547 -0.8635 8.9103)" class="st0" width="5.8" height="0.4"/>
<rect id="_15" x="20.1" y="13.4" transform="matrix(0.5547 -0.8321 0.8321 0.5547 -2.4754 25.5443)" width="5" height="3.3"/>
<rect id="_14" x="19.2" y="14.5" transform="matrix(0.5547 -0.8321 0.8321 0.5547 -2.4185 24.957)" class="st0" width="5.8" height="0.4"/>
<rect id="_13" x="20.2" y="15.2" transform="matrix(0.5547 -0.8321 0.8321 0.5547 -2.5323 26.1314)" class="st0" width="5.8" height="0.4"/>
<rect id="_12" x="22.4" y="13" transform="matrix(0.5547 -0.8321 0.8321 0.5547 -2.4756 25.5442)" class="st0" width="0.4" height="4.2"/>
<circle id="_11" class="st1" cx="15" cy="10" r="5"/>
<path id="_10" class="st2" d="M10.8,7.2c-0.8,1.1-0.5,2.7,0.7,3.5c1.1,0.8,2.7,0.5,3.5-0.7c0,0,0,0,0,0c0.8-1.2,2.3-1.5,3.5-0.7
	c1.2,0.8,1.5,2.3,0.7,3.5c0,0,0,0,0,0c-1.5,2.3-4.6,2.9-6.9,1.4S9.3,9.5,10.8,7.2"/>
<rect id="_9" x="5.6" y="12.6" transform="matrix(0.8336 -0.5524 0.5524 0.8336 -7.122 6.536)" width="3.3" height="5"/>
<rect id="_8" x="6.6" y="12.5" transform="matrix(0.8321 -0.5547 0.5547 0.8321 -7.4089 6.3931)" class="st0" width="0.4" height="5.8"/>
<rect id="_7" x="7.6" y="11.8" transform="matrix(0.8336 -0.5524 0.5524 0.8336 -6.8456 6.7664)" class="st0" width="0.4" height="5.8"/>
<rect id="_6" x="21" y="2.4" transform="matrix(0.8321 -0.5547 0.5547 0.8321 1.0737 13.3768)" width="3.3" height="5"/>
<rect id="_5" x="21.9" y="2.3" transform="matrix(0.8321 -0.5547 0.5547 0.8321 0.794 13.1465)" class="st0" width="0.4" height="5.8"/>
<rect id="_4" x="22.9" y="1.7" transform="matrix(0.8321 -0.5547 0.5547 0.8321 1.3533 13.6071)" class="st0" width="0.4" height="5.8"/>
<rect id="_3" x="20.5" y="4.7" transform="matrix(0.8321 -0.5547 0.5547 0.8321 1.0742 13.3764)" class="st0" width="4.2" height="0.4"/>
<rect id="_2" x="22.2" y="4.5" transform="matrix(0.8321 -0.5547 0.5547 0.8321 1.0733 13.3771)" width="0.8" height="0.8"/>
<rect id="_1" x="6.5" y="14.9" transform="matrix(0.8321 -0.5547 0.5547 0.8321 -7.1288 6.6232)" class="st0" width="1.7" height="0.4"/>
</svg>
