<?xml version="1.0" encoding="utf-8"?>
<!-- Generator: Adobe Illustrator 24.3.0, SVG Export Plug-In . SVG Version: 6.00 Build 0)  -->
<svg version="1.1" id="Layer_1" xmlns="http://www.w3.org/2000/svg" xmlns:xlink="http://www.w3.org/1999/xlink" x="0px" y="0px"
	 width="30px" height="20px" viewBox="0 0 30 20" style="enable-background:new 0 0 30 20;" xml:space="preserve">
<style type="text/css">
	.st0{clip-path:url(#SVGID_2_);}
	.st1{fill:#DB1F26;}
	.st2{fill:#DD2D26;}
	.st3{fill:#FDDD00;}
</style>
<g>
	<defs>
		<rect id="SVGID_1_" x="0.1" y="0.2" width="30" height="20"/>
	</defs>
	<clipPath id="SVGID_2_">
		<use xlink:href="#SVGID_1_"  style="overflow:visible;"/>
	</clipPath>
	<g class="st0">
		<rect x="-1.5" y="-1.8" class="st1" width="33.1" height="24"/>
		<rect x="0.1" y="0.2" class="st2" width="30" height="20"/>
		<polygon class="st3" points="5.8,5.9 7.5,4.6 5.4,4.6 4.8,2.6 4.1,4.6 2,4.6 3.7,5.9 3.1,7.9 4.8,6.6 6.5,7.9 		"/>
		<polygon class="st3" points="9.8,2.9 10.5,2.7 9.9,2.5 9.9,1.8 9.5,2.3 8.8,2 9.2,2.6 8.7,3.1 9.4,3 9.8,3.6 		"/>
		<polygon class="st3" points="11.6,4.9 12.3,5 11.8,4.5 12.1,3.9 11.5,4.2 11,3.7 11.1,4.4 10.5,4.7 11.2,4.8 11.3,5.5 		"/>
		<polygon class="st3" points="11.8,7.6 12.4,7.1 11.7,7.2 11.4,6.5 11.2,7.2 10.5,7.2 11.1,7.6 10.9,8.3 11.5,7.8 12.1,8.2 		"/>
		<polygon class="st3" points="9.8,9.6 10.5,9.4 9.9,9.2 9.9,8.5 9.5,9 8.8,8.8 9.2,9.4 8.7,9.9 9.4,9.7 9.8,10.3 		"/>
	</g>
</g>
</svg>
