<?xml version="1.0" encoding="utf-8"?>
<!-- Generator: Adobe Illustrator 24.3.0, SVG Export Plug-In . SVG Version: 6.00 Build 0)  -->
<svg version="1.1" id="Layer_1" xmlns="http://www.w3.org/2000/svg" xmlns:xlink="http://www.w3.org/1999/xlink" x="0px" y="0px"
	 width="30px" height="20px" viewBox="0 0 30 20" style="enable-background:new 0 0 30 20;" xml:space="preserve">
<style type="text/css">
	.st0{fill:#DF2507;}
	.st1{clip-path:url(#SVGID_2_);}
	.st2{fill:#FFFFFF;}
</style>
<rect class="st0" width="30" height="20"/>
<g>
	<defs>
		<rect id="SVGID_1_" width="30" height="20"/>
	</defs>
	<clipPath id="SVGID_2_">
		<use xlink:href="#SVGID_1_"  style="overflow:visible;"/>
	</clipPath>
	<g class="st1">
		<path class="st2" d="M20,9.2c0.5-0.1,1,0.3,1,0.3s-0.4-2.3-3.1-2.4C15.3,7.2,15,9.7,15,9.7c0,0,0.2-0.8,1.3-1.2
			c0.7-0.3,1.5-0.1,1.5-0.1l0,0.1c0,0-0.6-0.2-1.4,0.1c-1,0.4-1.2,1.3-1.2,1.3s0.4-0.7,1.2-0.6c0.2,0,0.4,0.1,0.7,0.3
			c0.4,0.4,0.6,0.6,1.3,0.6C19.4,10.1,19.3,9.3,20,9.2 M18.1,8.8l-0.4-0.1l0.3-0.2l0-0.4l0.3,0.2l0.3-0.1l-0.2,0.3l0.2,0.3l-0.4,0
			l-0.2,0.3L18.1,8.8z"/>
		<path class="st2" d="M17.3,14.5c0.3,0.4,0,1,0,1s2.1-1.1,1.3-3.7c-0.9-2.5-3.3-1.9-3.3-1.9c0,0,0.8,0,1.5,0.8
			c0.5,0.5,0.5,1.4,0.5,1.4l-0.1,0c0,0,0-0.6-0.5-1.3C16.1,10,15.2,10,15.2,10s0.8,0.2,0.9,1c0,0.2,0,0.4-0.1,0.7
			c-0.2,0.5-0.4,0.8-0.2,1.5C16.3,14.2,17,13.9,17.3,14.5 M17.1,12.6l0-0.4l0.3,0.2l0.3-0.1l-0.2,0.3l0.2,0.3l-0.4,0l-0.2,0.3
			l-0.1-0.4l-0.4-0.1L17.1,12.6z"/>
		<path class="st2" d="M11.4,13.6c-0.3,0.4-1,0.3-1,0.3s1.7,1.6,3.9,0.1c2.1-1.6,0.8-3.8,0.8-3.8c0,0,0.3,0.8-0.3,1.7
			c-0.4,0.6-1.1,0.9-1.1,0.9l0-0.1c0,0,0.6-0.2,1.1-0.9c0.6-0.9,0.3-1.7,0.3-1.7s0.1,0.8-0.6,1.2c-0.2,0.1-0.4,0.1-0.7,0.2
			c-0.5-0.1-0.9-0.1-1.4,0.3C11.4,12.5,11.9,13.1,11.4,13.6 M13.2,12.8l0.3-0.1L13.4,13l0.2,0.3l-0.4,0l-0.2,0.3L13,13.2l-0.4-0.1
			l0.3-0.2l0-0.4L13.2,12.8z"/>
		<path class="st2" d="M10.5,7.7C10,7.5,9.9,6.9,9.9,6.9S8.8,9,11,10.6c2.2,1.5,3.8-0.4,3.8-0.4c0,0-0.7,0.5-1.7,0.2
			c-0.7-0.1-1.2-0.8-1.2-0.8l0.1-0.1c0,0,0.4,0.5,1.2,0.8c1,0.3,1.7-0.3,1.7-0.3s-0.7,0.3-1.3-0.2c-0.2-0.1-0.3-0.3-0.4-0.6
			C13,8.7,12.9,8.4,12.4,8C11.5,7.3,11.1,8,10.5,7.7 M11.8,9.2L12,9.4l-0.4,0l-0.2,0.3l-0.1-0.4L11,9.3l0.3-0.2l0-0.4L11.6,9L12,8.8
			L11.8,9.2z"/>
		<path class="st2" d="M15.8,5c0-0.5,0.6-0.8,0.6-0.8s-2.3-0.3-3.2,2.2c-0.7,2.5,1.6,3.5,1.6,3.5c0,0-0.7-0.5-0.8-1.6
			c-0.1-0.7,0.4-1.4,0.4-1.4l0.1,0c0,0-0.4,0.5-0.3,1.4c0.1,1,0.8,1.6,0.8,1.6s-0.5-0.6-0.2-1.4c0.1-0.2,0.2-0.4,0.5-0.5
			c0.5-0.3,0.8-0.4,1-1.1C16.5,5.9,15.7,5.7,15.8,5 M14.8,6.7L14.6,7l-0.1-0.4l-0.4-0.1l0.3-0.2l0-0.4l0.3,0.2l0.3-0.1l-0.2,0.3
			l0.2,0.3L14.8,6.7z"/>
	</g>
</g>
</svg>
