<?xml version="1.0" encoding="utf-8"?>
<!-- Generator: Adobe Illustrator 24.3.0, SVG Export Plug-In . SVG Version: 6.00 Build 0)  -->
<svg version="1.1" id="图层_1" xmlns="http://www.w3.org/2000/svg" xmlns:xlink="http://www.w3.org/1999/xlink" x="0px" y="0px"
	 width="16px" height="16px" viewBox="0 0 16 16" style="enable-background:new 0 0 16 16;" xml:space="preserve">
<style type="text/css">
	.st0{fill:#891323;}
	.st1{fill:#AF2131;}
	.st2{fill:#C94E60;}
	.st3{fill:#E08195;}
	.st4{fill:#B42839;}
	.st5{fill-rule:evenodd;clip-rule:evenodd;fill:#FFFFFF;}
	.st6{opacity:0.2;enable-background:new    ;}
</style>
<path id="Layer" class="st0" d="M16.2,10.3v3.8c0,1-2.8,1.9-6.3,1.9s-6.3-0.8-6.3-1.9v-3.8c0,1,2.8,1.9,6.3,1.9S16.2,11.3,16.2,10.3
	z"/>
<path id="Layer_1_" class="st1" d="M16.2,6.2v4.1c0,1-2.8,1.9-6.3,1.9s-6.3-0.8-6.3-1.9V6.2c0,1,2.8,1.9,6.3,1.9S16.2,7.2,16.2,6.2z
	"/>
<path id="Layer_2_" class="st2" d="M16.2,1.8v4.3c0,1-2.8,1.9-6.3,1.9S3.6,7.2,3.6,6.2V1.9c0,1,2.8,1.9,6.3,1.9S16.2,2.9,16.2,1.8z"
	/>
<path id="Layer_3_" class="st3" d="M9.9,3.7c-3.5,0-6.3-0.8-6.3-1.9S6.4,0,9.9,0s6.3,0.8,6.3,1.9S13.4,3.7,9.9,3.7z"/>
<path id="Layer_4_" class="st4" d="M7.4,12.2H0.6c-0.5,0-0.8-0.4-0.8-0.8V4.6c0-0.5,0.4-0.8,0.8-0.8h6.8c0.5,0,0.8,0.4,0.8,0.8v6.7
	C8.2,11.8,7.9,12.2,7.4,12.2z"/>
<g id="Layer_6_">
	<path id="Layer_5_" class="st5" d="M3.4,9.1L3,10.4H2.1l1.5-4.6h1.1l1.5,4.6H5.3L4.9,9.1H3.4z M4.8,8.4L4.8,8.4L4.8,8.4z M4.4,7.3
		C4.3,7,4.2,6.7,4.2,6.4h0C4.1,6.7,4,7,3.9,7.3L3.6,8.4h1.2L4.4,7.3z"/>
</g>
<path id="Layer_7_" class="st6" d="M8.9,5.4v6.7c0,0.5-0.4,0.8-0.8,0.8H3.6v-0.7h3.8c0.5,0,0.8-0.4,0.8-0.8V4.6c0,0,0-0.1,0-0.1
	C8.7,4.6,8.9,5,8.9,5.4z"/>
</svg>
