<?xml version="1.0" encoding="utf-8"?>
<!-- Generator: Adobe Illustrator 24.3.0, SVG Export Plug-In . SVG Version: 6.00 Build 0)  -->
<svg version="1.1" id="图层_1" xmlns="http://www.w3.org/2000/svg" xmlns:xlink="http://www.w3.org/1999/xlink" x="0px" y="0px"
	 width="16px" height="16px" viewBox="0 0 16 16" style="enable-background:new 0 0 16 16;" xml:space="preserve">
<style type="text/css">
	.st0{fill:#21A365;}
	.st1{fill:#107C41;}
	.st2{fill:#185B37;}
	.st3{fill:#33C481;}
	.st4{fill:#17864C;}
	.st5{fill:#FFFFFF;}
	.st6{opacity:0.2;enable-background:new    ;}
</style>
<path id="Layer" class="st0" d="M10,4h6.6v4H10V4z"/>
<path id="Layer_1_" class="st1" d="M10,8h6.6v4H10V8z"/>
<path id="Layer_2_" class="st1" d="M3.4,4H10v4H3.4L3.4,4z"/>
<path id="Layer_3_" class="st2" d="M16.6,12v3.2c0,0.4-0.3,0.8-0.8,0.8H4.2c-0.4,0-0.8-0.3-0.8-0.8v-2.6V12V8H10v4H16.6z"/>
<path id="Layer_4_" class="st3" d="M16.6,0.8V4H10V0h5.8C16.2,0,16.6,0.3,16.6,0.8z"/>
<path id="Layer_5_" class="st0" d="M10,0v4H3.4V0.8C3.4,0.3,3.7,0,4.2,0L10,0L10,0z"/>
<path id="Layer_6_" class="st4" d="M7.4,12.4H0.3c-0.5,0-0.9-0.4-0.9-0.9v-7c0-0.5,0.4-0.9,0.9-0.9h7.1c0.5,0,0.9,0.4,0.9,0.9v7
	C8.3,12,7.9,12.4,7.4,12.4z"/>
<g id="Layer_8_">
	<path id="Layer_7_" class="st5" d="M4.8,10.5l-0.5-1C4.1,9.1,4,8.9,3.8,8.6h0C3.7,8.9,3.6,9.1,3.4,9.5l-0.5,1h-1L3.3,8L1.9,5.6h1
		l0.5,1c0.2,0.3,0.3,0.5,0.4,0.8h0C4,7.2,4.1,6.9,4.3,6.6l0.5-1h1L4.4,8l1.5,2.5H4.8z"/>
</g>
<path id="Layer_9_" class="st6" d="M9.1,5.3v7c0,0.5-0.4,0.9-0.9,0.9H3.5v-0.8h4c0.5,0,0.9-0.4,0.9-0.9v-7c0,0,0-0.1,0-0.1
	C8.8,4.5,9.1,4.8,9.1,5.3z"/>
</svg>
