<?xml version="1.0" encoding="utf-8"?>
<!-- Generator: Adobe Illustrator 24.3.0, SVG Export Plug-In . SVG Version: 6.00 Build 0)  -->
<svg version="1.1" id="图层_1" xmlns="http://www.w3.org/2000/svg" xmlns:xlink="http://www.w3.org/1999/xlink" x="0px" y="0px"
	 width="16px" height="16px" viewBox="0 0 16 16" style="enable-background:new 0 0 16 16;" xml:space="preserve">
<style type="text/css">
	.st0{fill:#CA64EA;}
	.st1{fill:#7E1FAF;}
	.st2{fill:#FFFFFF;}
	.st3{fill:#AE4BD5;}
	.st4{fill:#9332BF;}
	.st5{fill:#7719AA;}
	.st6{opacity:0.2;enable-background:new    ;}
</style>
<path id="Layer" class="st0" d="M15.8,16H4.2c-0.4,0-0.8-0.4-0.8-0.8V0.8C3.4,0.4,3.8,0,4.2,0h11.6c0.4,0,0.8,0.4,0.8,0.8v14.4
	C16.6,15.7,16.3,16,15.8,16z"/>
<path id="Layer_1_" class="st1" d="M7.4,12.4H0.3c-0.5,0-0.9-0.4-0.9-0.9v-7c0-0.5,0.4-0.9,0.9-0.9h7.1c0.5,0,0.9,0.4,0.9,0.9v7
	C8.3,12,7.9,12.4,7.4,12.4z"/>
<g id="Layer_3_">
	<path id="Layer_2_" class="st2" d="M2,10.5V5.6h1l1.3,2.1c0.3,0.5,0.6,1.1,0.8,1.6l0,0C5.1,8.7,5,8.1,5,7.3V5.6h0.8v4.8H4.9
		L3.7,8.4C3.4,7.8,3,7.2,2.8,6.7h0c0,0.6,0.1,1.3,0.1,2.1v1.7L2,10.5z"/>
</g>
<path id="Layer_4_" class="st3" d="M12.6,4.1h4v4h-4V4.1z"/>
<path id="Layer_5_" class="st4" d="M12.6,8.1h4v4h-4V8.1z"/>
<path id="Layer_6_" class="st5" d="M12.6,12.1h4v3.2c0,0.4-0.3,0.7-0.7,0.8h-3.3V12.1z"/>
<path id="Layer_7_" class="st6" d="M9,5.3v7c0,0.5-0.4,0.9-0.9,0.9H3.4v-0.8h3.9c0.5,0,0.9-0.4,0.9-0.9v-7c0,0,0-0.1,0-0.1
	C8.7,4.5,9,4.8,9,5.3z"/>
</svg>
