<?xml version="1.0" encoding="utf-8"?>
<!-- Generator: Adobe Illustrator 24.3.0, SVG Export Plug-In . SVG Version: 6.00 Build 0)  -->
<svg version="1.1" id="图层_1" xmlns="http://www.w3.org/2000/svg" xmlns:xlink="http://www.w3.org/1999/xlink" x="0px" y="0px"
	 width="16px" height="16px" viewBox="0 0 16 16" style="enable-background:new 0 0 16 16;" xml:space="preserve">
<style type="text/css">
	.st0{fill:#C8421D;}
	.st1{fill:#FF8F6A;}
	.st2{fill:#ED6B47;}
	.st3{fill-rule:evenodd;clip-rule:evenodd;fill:#FFFFFF;}
	.st4{opacity:0.2;enable-background:new    ;}
</style>
<path id="Layer" class="st0" d="M0.9,8h16c0,4.4-3.6,8-8,8S0.9,12.5,0.9,8z"/>
<path id="Layer_1_" class="st1" d="M16.9,8h-8V0C13.3,0,16.9,3.6,16.9,8z"/>
<path id="Layer_2_" class="st2" d="M8.9,0v8h-8C0.9,3.6,4.5,0,8.9,0z"/>
<path id="Layer_3_" class="st0" d="M7.4,12.5H0c-0.5,0-0.9-0.4-0.9-0.9V4.4c0-0.5,0.4-0.9,0.9-0.9h7.3c0.5,0,0.9,0.4,0.9,0.9v7.2
	C8.2,12.1,7.8,12.5,7.4,12.5z"/>
<g id="Layer_5_">
	<path id="Layer_4_" class="st3" d="M3.1,8.6v1.9H2V5.3h2.1c0.6,0,1.1,0.2,1.4,0.5C5.9,6.1,6.1,6.5,6.1,7c0,0.5-0.2,0.9-0.5,1.2
		C5.2,8.5,4.7,8.6,4.1,8.6H3.1z M4.1,7.8c0.3,0,0.5-0.1,0.7-0.2C5,7.4,5,7.2,5,7C5,6.8,5,6.5,4.8,6.4S4.4,6.1,4.1,6.1h-1v1.7
		L4.1,7.8z"/>
</g>
<path id="Layer_6_" class="st4" d="M8.9,5.2v7.2c0,0.5-0.4,0.9-0.9,0.9H2.8l-0.5-0.8h5.1c0.5,0,0.9-0.4,0.9-0.9V4.4c0,0,0-0.1,0-0.1
	C8.6,4.4,9,4.8,8.9,5.2z"/>
</svg>
