<?xml version="1.0" encoding="utf-8"?>
<!-- Generator: Adobe Illustrator 24.3.0, SVG Export Plug-In . SVG Version: 6.00 Build 0)  -->
<svg version="1.1" id="图层_1" xmlns="http://www.w3.org/2000/svg" xmlns:xlink="http://www.w3.org/1999/xlink" x="0px" y="0px"
	 width="16px" height="16px" viewBox="0 0 16 16" style="enable-background:new 0 0 16 16;" xml:space="preserve">
<style type="text/css">
	.st0{fill:#41A5ED;}
	.st1{fill:#2C7BD5;}
	.st2{fill:#195ABE;}
	.st3{fill:#103E91;}
	.st4{fill:#2166C3;}
	.st5{fill:#FFFFFF;}
	.st6{opacity:0.2;enable-background:new    ;}
</style>
<path id="Layer" class="st0" d="M16.6,4H3.4V0.8C3.4,0.3,3.7,0,4.2,0h11.7c0.4,0,0.8,0.3,0.8,0.8L16.6,4L16.6,4z"/>
<path id="Layer_1_" class="st1" d="M3.4,4h13.2v4H3.4L3.4,4z"/>
<path id="Layer_2_" class="st2" d="M3.4,8h13.2v4H3.4L3.4,8z"/>
<path id="Layer_3_" class="st3" d="M15.8,16H4.2c-0.4,0-0.8-0.3-0.8-0.8V12h13.2v3.2C16.6,15.7,16.3,16,15.8,16z"/>
<path id="Layer_4_" class="st4" d="M7.4,12.4H0.3c-0.5,0-0.9-0.4-0.9-0.9v-7c0-0.5,0.4-0.9,0.9-0.9h7.1c0.5,0,0.9,0.4,0.9,0.9v7
	C8.3,12,7.9,12.4,7.4,12.4z"/>
<g id="Layer_6_">
	<path id="Layer_5_" class="st5" d="M2,10.5L0.8,5.6h1l0.5,2.2C2.3,8.4,2.5,9,2.5,9.5h0C2.6,9,2.8,8.4,2.9,7.8l0.5-2.2h0.9l0.5,2.2
		C5,8.4,5.1,9,5.2,9.5h0C5.2,9,5.4,8.4,5.5,7.8L6,5.6h0.9l-1.3,4.8h-1L4.1,8.2C4,7.7,3.9,7.2,3.8,6.7h0c-0.1,0.5-0.2,1-0.3,1.5
		l-0.6,2.3L2,10.5L2,10.5z"/>
</g>
<path id="Layer_7_" class="st6" d="M9,5.3v7c0,0.5-0.4,0.9-0.9,0.9H3.4v-0.8h4c0.5,0,0.9-0.4,0.9-0.9v-7c0,0,0-0.1,0-0.1
	C8.7,4.5,9,4.8,9,5.3z"/>
</svg>
