<?xml version="1.0" encoding="utf-8"?>
<!-- Generator: Adobe Illustrator 22.1.0, SVG Export Plug-In . SVG Version: 6.00 Build 0)  -->
<svg version="1.1" id="图层_1" xmlns="http://www.w3.org/2000/svg" xmlns:xlink="http://www.w3.org/1999/xlink" x="0px" y="0px"
	 width="19.2px" height="16px" viewBox="0 0 19.2 16" style="enable-background:new 0 0 19.2 16;" xml:space="preserve">
<style type="text/css">
	.st0{fill:url(#Layer_1_);}
</style>
<title>exclamation-triangle-svg</title>
<linearGradient id="Layer_1_" gradientUnits="userSpaceOnUse" x1="0.9356" y1="8.025" x2="18.9053" y2="8.025">
	<stop  offset="0" style="stop-color:#FDEB71"/>
	<stop  offset="1" style="stop-color:#F8D800"/>
</linearGradient>
<path id="Layer" class="st0" d="M18.7,13.8c0.6,1-0.2,2.2-1.3,2.2h-15c-1.1,0-1.8-1.3-1.3-2.2l7.5-13c0.6-1,2-1,2.6,0L18.7,13.8z
	 M11.4,12.6c0-0.8-0.6-1.4-1.4-1.4s-1.4,0.6-1.4,1.4c0,0.8,0.6,1.4,1.4,1.4S11.4,13.4,11.4,12.6z M8.6,6l0.2,4.2
	c0,0.2,0.2,0.4,0.4,0.4h1.5c0.2,0,0.3-0.2,0.3-0.4L11.3,6c0-0.2-0.2-0.4-0.3-0.4H9C8.7,5.6,8.6,5.7,8.6,6z"/>
</svg>
