<?xml version="1.0" encoding="utf-8"?>
<!-- Generator: Adobe Illustrator 22.1.0, SVG Export Plug-In . SVG Version: 6.00 Build 0)  -->
<svg version="1.1" id="图层_1" xmlns="http://www.w3.org/2000/svg" xmlns:xlink="http://www.w3.org/1999/xlink" x="0px" y="0px"
	 width="16px" height="16px" viewBox="0 0 16 16" style="enable-background:new 0 0 16 16;" xml:space="preserve">
<style type="text/css">
	.st0{fill:url(#SVGID_1_);}
</style>
<linearGradient id="SVGID_1_" gradientUnits="userSpaceOnUse" x1="0" y1="8" x2="16" y2="8">
	<stop  offset="0" style="stop-color:#FE5858"/>
	<stop  offset="1" style="stop-color:#EE9617"/>
</linearGradient>
<path class="st0" d="M0,8c0-4.4,3.6-8,8-8s8,3.6,8,8s-3.6,8-8,8S0,12.4,0,8z M5.5,6.5L6.9,8L5.5,9.5c-0.3,0.3-0.3,0.7,0,1
	c0,0,0,0,0,0l0,0c0.2,0.3,0.6,0.3,0.9,0.1l0.1-0.1L8,9.1l1.5,1.4c0.3,0.3,0.7,0.3,1,0c0.3-0.3,0.3-0.7,0-1l0,0L9.1,8l1.4-1.5
	c0.3-0.2,0.3-0.7,0.1-0.9l-0.1-0.1c-0.3-0.3-0.7-0.3-1,0c0,0,0,0,0,0l0,0L8,6.9L6.5,5.5c-0.3-0.3-0.7-0.3-1,0S5.2,6.2,5.5,6.5
	L5.5,6.5z"/>
</svg>
