<?xml version="1.0" encoding="utf-8"?>
<!-- Generator: Adobe Illustrator 24.3.0, SVG Export Plug-In . SVG Version: 6.00 Build 0)  -->
<svg version="1.1" id="图层_1" xmlns="http://www.w3.org/2000/svg" xmlns:xlink="http://www.w3.org/1999/xlink" x="0px" y="0px"
	 width="16px" height="16px" viewBox="0 0 16 16" style="enable-background:new 0 0 16 16;" xml:space="preserve">
<style type="text/css">
	.st0{fill-rule:evenodd;clip-rule:evenodd;fill:#00BFFF;}
</style>
<path id="Layer" class="st0" d="M8,16c-4.4,0-8-3.6-8-8s3.6-8,8-8s8,3.6,8,8S12.4,16,8,16z M9.4,4.9c0-0.7-0.6-1.4-1.4-1.4
	S6.6,4.2,6.6,4.9c0,0.8,0.6,1.4,1.4,1.4S9.4,5.7,9.4,4.9z M9.8,11c0-0.2-0.2-0.4-0.4-0.4H9V7.4C9,7.1,8.9,7,8.6,7H6.6
	C6.4,7,6.2,7.1,6.2,7.4v0.8c0,0.2,0.2,0.3,0.4,0.3H7v2.1H6.6c-0.2,0-0.4,0.2-0.4,0.4v0.8c0,0.2,0.2,0.4,0.4,0.4h2.9
	c0.2,0,0.4-0.2,0.4-0.4L9.8,11z"/>
</svg>
