<?xml version="1.0" encoding="utf-8"?>
<!-- Generator: Adobe Illustrator 24.3.0, SVG Export Plug-In . SVG Version: 6.00 Build 0)  -->
<svg version="1.1" id="图层_1" xmlns="http://www.w3.org/2000/svg" xmlns:xlink="http://www.w3.org/1999/xlink" x="0px" y="0px"
	 width="16px" height="16px" viewBox="0 0 16 16" style="enable-background:new 0 0 16 16;" xml:space="preserve">
<style type="text/css">
	.st0{fill-rule:evenodd;clip-rule:evenodd;fill:#FF1493;}
</style>
<path id="Layer" class="st0" d="M10.2,5.8c1.8,1.9,1.8,4.9,0,6.7l0,0l-2.2,2.2c-1.8,1.8-4.8,1.8-6.7,0c-1.8-1.9-1.8-4.9,0-6.7
	l1.2-1.2C2.9,6.4,3.4,6.6,3.5,7c0,0.6,0.1,1.1,0.2,1.7c0.1,0.2,0.1,0.4-0.1,0.5L3.2,9.7c-0.9,0.8-1,2.2-0.1,3.1c0.9,1,2.3,1,3.2,0.1
	l2.1-2.2c0.9-0.9,0.9-2.3,0-3.1C8.3,7.4,8.2,7.3,8.1,7.3c0,0,0,0-0.1-0.1c0,0,0,0,0-0.1C7.9,7.1,7.9,7,7.9,7c0-0.1,0-0.1,0-0.2
	C7.9,6.6,8,6.2,8.2,6L9,5.3c0.2-0.2,0.4-0.2,0.6,0c0.1,0,0.1,0,0.2,0.1c0.1,0.1,0.1,0.1,0.2,0.2C10,5.6,10,5.6,10.1,5.7
	C10.1,5.7,10.2,5.7,10.2,5.8z M14.6,8.1l-1.2,1.2c-0.3,0.3-0.8,0.1-0.9-0.3c0-0.6-0.1-1.1-0.2-1.7c-0.1-0.2-0.1-0.4,0.1-0.5l0.4-0.5
	c0.9-0.8,1-2.2,0.1-3.1c-0.9-1-2.3-1-3.2-0.1L7.6,5.3c-0.9,0.9-0.9,2.3,0,3.1c0.1,0.2,0.2,0.3,0.3,0.3c0,0,0,0,0.1,0.1
	c0,0,0,0,0,0.1C8.1,8.9,8.1,9,8.1,9c0,0.1,0,0.1,0,0.2C8.1,9.4,8,9.8,7.8,10L7,10.7c-0.2,0.2-0.4,0.2-0.6,0c-0.1,0-0.1,0-0.2-0.1
	s-0.1-0.1-0.2-0.2S6,10.4,5.9,10.3c-0.1,0-0.1,0-0.2-0.1c-1.8-1.9-1.8-4.9,0-6.7c0,0,0,0,0,0l2.2-2.2c1.8-1.8,4.8-1.8,6.7,0
	C16.5,3.3,16.5,6.2,14.6,8.1z"/>
</svg>
