<?xml version="1.0" encoding="utf-8"?>
<!-- Generator: Adobe Illustrator 24.3.0, SVG Export Plug-In . SVG Version: 6.00 Build 0)  -->
<svg version="1.1" id="图层_1" xmlns="http://www.w3.org/2000/svg" xmlns:xlink="http://www.w3.org/1999/xlink" x="0px" y="0px"
	 width="20px" height="16px" viewBox="0 0 20 16" style="enable-background:new 0 0 20 16;" xml:space="preserve">
<style type="text/css">
	.st0{fill:#FF4500;}
</style>
<path class="st0" d="M3.4,0H0.6C0.3,0,0.1,0.2,0.1,0.5v2.7c0,0.3,0.2,0.5,0.5,0.5h2.7c0.3,0,0.5-0.2,0.5-0.5V0.5
	C3.9,0.2,3.7,0,3.4,0z"/>
<path class="st0" d="M3.4,6.1H0.6c-0.3,0-0.5,0.3-0.5,0.5v2.7c0,0.3,0.2,0.5,0.5,0.5h2.7c0.3,0,0.5-0.2,0.5-0.5V6.6
	C3.9,6.4,3.7,6.1,3.4,6.1z"/>
<path class="st0" d="M3.4,12.3H0.6c-0.3,0-0.5,0.2-0.5,0.5v2.7c0,0.3,0.2,0.5,0.5,0.5h2.7c0.3,0,0.5-0.2,0.5-0.5v-2.7
	C3.9,12.5,3.7,12.3,3.4,12.3z"/>
<rect x="6.3" y="0.6" class="st0" width="13.5" height="2.5"/>
<rect x="6.3" y="6.8" class="st0" width="13.5" height="2.5"/>
<rect x="6.3" y="12.9" class="st0" width="13.5" height="2.5"/>
</svg>
