<?xml version="1.0" encoding="utf-8"?>
<!-- Generator: Adobe Illustrator 24.3.0, SVG Export Plug-In . SVG Version: 6.00 Build 0)  -->
<svg version="1.1" id="图层_1" xmlns="http://www.w3.org/2000/svg" xmlns:xlink="http://www.w3.org/1999/xlink" x="0px" y="0px"
	 width="16px" height="16px" viewBox="0 0 16 16" style="enable-background:new 0 0 16 16;" xml:space="preserve">
<style type="text/css">
	.st0{fill:#0BD36F;}
</style>
<path class="st0" d="M8,0C3.6,0,0,3.6,0,8s3.6,8,8,8s8-3.6,8-8S12.4,0,8,0z M8,12.5c-0.5,0-1-0.4-1-1c0,0,0,0,0,0l0,0
	c0-0.5,0.4-1,0.9-1H8c0.6,0,1,0.4,1,1S8.6,12.5,8,12.5L8,12.5z M10.2,8.1L8.8,8.9V9c0,0.4-0.3,0.8-0.8,0.8C7.6,9.8,7.2,9.4,7.2,9
	V8.5c0-0.3,0.1-0.5,0.4-0.7l1.8-1.1c0.2-0.1,0.3-0.4,0.3-0.6c0-0.4-0.3-0.7-0.7-0.7H7.4c-0.4,0-0.7,0.3-0.7,0.7l0,0
	c0,0.4-0.3,0.8-0.8,0.8c-0.4,0-0.8-0.3-0.8-0.8C5.2,5,6.2,4,7.4,4H9c1.2,0,2.2,0.9,2.2,2.1c0,0,0,0,0,0v0.1
	C11.2,7,10.8,7.7,10.2,8.1z"/>
</svg>
