<?xml version="1.0" encoding="utf-8"?>
<!-- Generator: Adobe Illustrator 24.3.0, SVG Export Plug-In . SVG Version: 6.00 Build 0)  -->
<svg version="1.1" id="图层_1" xmlns="http://www.w3.org/2000/svg" xmlns:xlink="http://www.w3.org/1999/xlink" x="0px" y="0px"
	 width="16px" height="16px" viewBox="0 0 16 16" style="enable-background:new 0 0 16 16;" xml:space="preserve">
<style type="text/css">
	.st0{fill-rule:evenodd;clip-rule:evenodd;fill:#32CD32;}
</style>
<path id="Layer" class="st0" d="M8,16c-4.4,0-8-3.6-8-8s3.6-8,8-8s8,3.6,8,8S12.4,16,8,16z M7,12.2l6-5.9c0.2-0.2,0.2-0.6,0-0.7
	l-0.7-0.7c-0.2-0.2-0.6-0.2-0.8,0L6.7,9.7L4.5,7.4c-0.2-0.2-0.6-0.2-0.8,0L3,8.2C2.8,8.3,2.8,8.6,3,8.9l3.4,3.4
	C6.6,12.4,6.9,12.4,7,12.2z"/>
</svg>
