<?xml version="1.0" encoding="utf-8"?>
<!-- Generator: Adobe Illustrator 24.3.0, SVG Export Plug-In . SVG Version: 6.00 Build 0)  -->
<svg version="1.1" id="图层_1" xmlns="http://www.w3.org/2000/svg" xmlns:xlink="http://www.w3.org/1999/xlink" x="0px" y="0px"
	 width="16px" height="16px" viewBox="0 0 16 16" style="enable-background:new 0 0 16 16;" xml:space="preserve">
<style type="text/css">
	.st0{fill-rule:evenodd;clip-rule:evenodd;fill:#FF1493;}
</style>
<path id="Layer" class="st0" d="M9.5,12.7c0.1,0.1,0.1,0.4,0,0.5l-1.4,1.4c-1.9,1.8-4.9,1.8-6.7,0c-1.8-1.9-1.8-4.9,0-6.7l1.4-1.4
	c0.1-0.1,0.4-0.1,0.5,0l1.2,1.2c0.1,0.1,0.1,0.4,0,0.5L3.2,9.7c-0.9,0.9-0.9,2.3,0,3.2c0.9,0.9,2.3,0.9,3.2,0l1.4-1.4
	c0.1-0.1,0.4-0.1,0.5,0L9.5,12.7z M7.7,4.6c0.1,0.1,0.4,0.1,0.5,0l1.4-1.4c0.9-0.9,2.3-0.9,3.2,0c0.9,0.9,0.9,2.3,0,3.2l-1.4,1.4
	c-0.1,0.1-0.1,0.4,0,0.5l1.2,1.2c0.1,0.1,0.4,0.1,0.5,0l1.4-1.4c1.8-1.9,1.8-4.9,0-6.7c-1.9-1.8-4.9-1.8-6.7,0L6.5,2.8
	c-0.1,0.1-0.1,0.4,0,0.5L7.7,4.6z M15.1,15.8l0.7-0.7c0.3-0.3,0.3-0.8,0-1.1L2,0.2c-0.3-0.3-0.8-0.3-1.1,0L0.2,0.9
	c-0.3,0.3-0.3,0.8,0,1.1L14,15.8C14.3,16.1,14.8,16.1,15.1,15.8z"/>
</svg>
