<?xml version="1.0" encoding="utf-8"?>
<!-- Generator: Adobe Illustrator 24.3.0, SVG Export Plug-In . SVG Version: 6.00 Build 0)  -->
<svg version="1.1" id="图层_1" xmlns="http://www.w3.org/2000/svg" xmlns:xlink="http://www.w3.org/1999/xlink" x="0px" y="0px"
	 width="20px" height="16px" viewBox="0 0 20 16" style="enable-background:new 0 0 20 16;" xml:space="preserve">
<style type="text/css">
	.st0{fill-rule:evenodd;clip-rule:evenodd;fill:#FFD700;}
</style>
<path id="Layer" class="st0" d="M18.8,13.8c0.6,1-0.2,2.2-1.3,2.2h-15c-1.1,0-1.8-1.3-1.3-2.2l7.5-13c0.6-1,2-1,2.6,0L18.8,13.8z
	 M11.4,12.6c0-0.8-0.6-1.4-1.4-1.4s-1.4,0.6-1.4,1.4S9.2,14,10,14S11.4,13.4,11.4,12.6z M8.6,5.9l0.2,4.2c0,0.2,0.2,0.4,0.4,0.4h1.5
	c0.2,0,0.3-0.2,0.3-0.4l0.2-4.2c0-0.2-0.2-0.4-0.3-0.4H9C8.8,5.5,8.6,5.7,8.6,5.9z"/>
</svg>
