<?xml version="1.0" encoding="utf-8"?>
<!-- Generator: Adobe Illustrator 24.3.0, SVG Export Plug-In . SVG Version: 6.00 Build 0)  -->
<svg version="1.1" id="Layer_1" xmlns="http://www.w3.org/2000/svg" xmlns:xlink="http://www.w3.org/1999/xlink" x="0px" y="0px"
	 width="1500px" height="1000px" viewBox="0 0 1500 1000" style="enable-background:new 0 0 1500 1000;" xml:space="preserve">
<style type="text/css">
	.st0{fill:#FFFFFF;}
	.st1{fill:#C60C30;}
	.st2{fill:#003478;}
</style>
<rect id="_19" class="st0" width="1500" height="1000"/>
<rect id="_18" x="243.6" y="162.4" transform="matrix(0.5547 -0.8321 0.8321 0.5547 -40.3346 416.1709)" width="250" height="166.7"/>
<rect id="_17" x="196.8" y="218" transform="matrix(0.5547 -0.8321 0.8321 0.5547 -37.4801 386.8059)" class="st0" width="291.7" height="20.8"/>
<rect id="_16" x="248.8" y="252.7" transform="matrix(0.5547 -0.8321 0.8321 0.5547 -43.175 445.5146)" class="st0" width="291.7" height="20.8"/>
<rect id="_15" x="1006.4" y="670.9" transform="matrix(0.5547 -0.8321 0.8321 0.5547 -123.7684 1277.2168)" width="250" height="166.7"/>
<rect id="_14" x="959.5" y="726.5" transform="matrix(0.5547 -0.8321 0.8321 0.5547 -120.9232 1247.851)" class="st0" width="291.7" height="20.8"/>
<rect id="_13" x="1011.5" y="761.2" transform="matrix(0.5547 -0.8321 0.8321 0.5547 -126.6137 1306.5679)" class="st0" width="291.7" height="20.8"/>
<rect id="_12" x="1120.9" y="650.1" transform="matrix(0.5547 -0.8321 0.8321 0.5547 -123.7805 1277.2114)" class="st0" width="20.8" height="208.3"/>
<circle id="_11" class="st1" cx="750" cy="500" r="250"/>
<path id="_10" class="st2" d="M542,361.3c-38.7,57.1-23.8,134.9,33.3,173.6s134.9,23.8,173.6-33.3c0.4-0.5,0.7-1.1,1.1-1.6
	c37.8-57.7,115.3-73.9,173.1-36c57.7,37.8,73.9,115.3,36,173.1c-0.4,0.5-0.7,1.1-1.1,1.6C881.4,753.6,726.2,784.6,611.3,708
	S465.4,476.2,542,361.3"/>
<rect id="_9" x="281.4" y="630" transform="matrix(0.8336 -0.5524 0.5524 0.8336 -356.099 326.8004)" width="166" height="248.9"/>
<rect id="_8" x="332.2" y="625.7" transform="matrix(0.8321 -0.5547 0.5547 0.8321 -370.4442 319.653)" class="st0" width="20.8" height="291.7"/>
<rect id="_7" x="380" y="592" transform="matrix(0.8336 -0.5524 0.5524 0.8336 -342.2793 338.318)" class="st0" width="20.7" height="290.4"/>
<rect id="_6" x="1048" y="120.8" transform="matrix(0.8321 -0.5547 0.5547 0.8321 53.6858 668.839)" width="166.7" height="250"/>
<rect id="_5" x="1094.9" y="117.3" transform="matrix(0.8321 -0.5547 0.5547 0.8321 39.7017 657.3241)" class="st0" width="20.8" height="291.7"/>
<rect id="_4" x="1146.9" y="82.6" transform="matrix(0.8321 -0.5547 0.5547 0.8321 67.6646 680.3528)" class="st0" width="20.8" height="291.7"/>
<rect id="_3" x="1027.2" y="235.3" transform="matrix(0.8321 -0.5547 0.5547 0.8321 53.7084 668.8217)" class="st0" width="208.3" height="20.8"/>
<rect id="_2" x="1110.5" y="225" transform="matrix(0.8321 -0.5547 0.5547 0.8321 53.6635 668.8535)" width="41.7" height="41.7"/>
<rect id="_1" x="327" y="743.8" transform="matrix(0.8321 -0.5547 0.5547 0.8321 -356.4416 331.1606)" class="st0" width="83.3" height="20.8"/>
</svg>
