<?xml version="1.0" encoding="utf-8"?>
<!-- Generator: Adobe Illustrator 24.3.0, SVG Export Plug-In . SVG Version: 6.00 Build 0)  -->
<svg version="1.1" id="Layer_1" xmlns="http://www.w3.org/2000/svg" xmlns:xlink="http://www.w3.org/1999/xlink" x="0px" y="0px"
	 width="1500px" height="1000px" viewBox="0 0 1500 1000" style="enable-background:new 0 0 1500 1000;" xml:space="preserve">
<style type="text/css">
	.st0{clip-path:url(#SVGID_2_);}
	.st1{fill:#DB1F26;}
	.st2{fill:#DD2D26;}
	.st3{fill:#FDDD00;}
</style>
<g>
	<defs>
		<rect id="SVGID_1_" x="0.1" y="0.2" width="1500" height="1000"/>
	</defs>
	<clipPath id="SVGID_2_">
		<use xlink:href="#SVGID_1_"  style="overflow:visible;"/>
	</clipPath>
	<g class="st0">
		<rect x="-78.3" y="-99.8" class="st1" width="1656.9" height="1200"/>
		<rect x="0.1" y="0.2" class="st2" width="1500" height="1000"/>
		<polygon class="st3" points="286.6,284.9 370.9,223.2 266.6,223.2 234.4,123.4 202.2,223.2 98,223.2 182.3,284.9 150.1,384.7 
			234.4,323 318.8,384.7 		"/>
		<polygon class="st3" points="487.3,135.4 521.1,127.6 489.2,113.9 492.2,79.1 469.4,105.4 437.5,91.7 455.3,121.7 432.5,148.1 
			466.4,140.3 484.2,170.3 		"/>
		<polygon class="st3" points="577.2,236.2 611.4,242.2 587.2,217.1 603.5,186.1 572.3,201.5 548.1,176.4 553,211.1 521.8,226.5 
			556,232.5 560.9,267.1 		"/>
		<polygon class="st3" points="586.7,369.1 614,347.6 579.3,348.9 567.4,316 557.9,349.6 523.2,350.9 552,370.4 542.4,404 
			569.8,382.5 598.6,402 		"/>
		<polygon class="st3" points="487.8,471.9 521.3,462.6 488.8,450.3 490.4,415.4 468.7,442.7 436.2,430.3 455.3,459.5 433.6,486.9 
			467.1,477.6 486.2,506.8 		"/>
	</g>
</g>
</svg>
