<?xml version="1.0" encoding="utf-8"?>
<!-- Generator: Adobe Illustrator 24.3.0, SVG Export Plug-In . SVG Version: 6.00 Build 0)  -->
<svg version="1.1" id="Layer_1" xmlns="http://www.w3.org/2000/svg" xmlns:xlink="http://www.w3.org/1999/xlink" x="0px" y="0px"
	 width="1500px" height="1000px" viewBox="0 0 1500 1000" style="enable-background:new 0 0 1500 1000;" xml:space="preserve">
<style type="text/css">
	.st0{fill:#DF2507;}
	.st1{clip-path:url(#SVGID_2_);}
	.st2{fill:#FFFFFF;}
</style>
<rect class="st0" width="1500" height="1000"/>
<g>
	<defs>
		<rect id="SVGID_1_" width="1500" height="1000"/>
	</defs>
	<clipPath id="SVGID_2_">
		<use xlink:href="#SVGID_1_"  style="overflow:visible;"/>
	</clipPath>
	<g class="st1">
		<path class="st2" d="M1000.7,460c24-7.2,48.2,16.5,48.2,16.5s-19.9-116.3-154-120.8c-131.3,3.7-142.6,128.4-142.6,128.4
			c0.5-1.9,12.1-38.8,62.8-61.1c33.7-15.4,73.5-5,73.5-5l-1.1,4.2c0,0-30.7-10.6-71.1,4.9c-48.5,19-61.4,62.5-61.4,62.5
			s20.2-33.6,61.4-29.7c11,1,20.9,6.1,32.9,13.8c19.2,18,31.7,31.1,67.2,30.2C969.9,505.6,964.8,466.4,1000.7,460 M904.3,439.8
			l-17.8-4.6l16-9l-1.1-18.4l13.5,12.5l17.1-6.6l-7.7,16.7l11.7,14.2l-18.2-2.2l-9.9,15.5L904.3,439.8z"/>
		<path class="st2" d="M865.6,726c14.2,20.6-0.8,50.9-0.8,50.9s104.5-54.8,67.3-183.8c-44.1-123.7-166.2-96-166.2-96
			c1.9-0.1,40.6-0.5,77.5,40.8c25,27.3,27.5,68.4,27.5,68.4l-4.3,0.3c0,0,0.6-32.5-26.6-66.1c-33.1-40.3-78.4-39.1-78.4-39.1
			s38.2,8.8,47.2,49.3c2.4,10.8,0.7,21.8-3,35.6c-11.2,23.8-19.8,39.7-8,73.2C812.7,710.8,848.4,693.7,865.6,726 M855.1,628
			l-1.1-18.2l13.5,12.5l17.1-6.7l-7.7,16.7l11.7,14.2l-18.2-2.2l-9.9,15.5l-3.6-18L839,637L855.1,628z"/>
		<path class="st2" d="M571,679.8c-15.2,19.9-48.7,15-48.7,15s84.4,82.4,195.6,7.2c104-80.2,39.9-187.7,39.9-187.7
			c0.7,1.8,13,38.5-14.9,86.3c-18.3,32.3-56.5,47.2-56.5,47.2l-1.6-4c0,0,31.1-9.5,54.6-45.8c28.1-44,12.9-86.7,12.9-86.7
			s3.4,39-32.3,60.1c-9.5,5.6-20.5,7.4-34.7,8.2c-26.1-3.2-43.9-6.6-72.1,15C569.1,624.8,596.3,653.5,571,679.8 M660.9,639.5
			l17.1-6.7l-7.7,16.7l11.7,14.2l-18.3-2.2l-9.9,15.5l-3.6-18l-17.8-4.6l16-9l-1.1-18.3L660.9,639.5z"/>
		<path class="st2" d="M523.9,385.2c-23.6-8.3-29.3-41.6-29.3-41.6s-52.3,105.7,53.6,188.3c108.4,74.2,190.9-20,190.9-20
			c-1.5,1.2-32.6,24.3-86.7,12.5c-36.3-7.4-62.4-39.2-62.4-39.2l3.3-2.8c0,0,18.6,26.6,60.4,37.8c50.5,13.1,86.4-14.5,86.4-14.5
			S704.1,521,673,493.6c-8.3-7.3-13.3-17.2-18.5-30.5c-5-25.8-7.3-43.8-36.6-63.9C575.6,366.5,556.7,401.2,523.9,385.2 M590,458.2
			l11.7,14.2l-18.2-2.2l-9.9,15.5l-3.6-18l-17.8-4.6l16-9l-1.1-18.3l13.5,12.5l17.1-6.7L590,458.2z"/>
		<path class="st2" d="M789.5,249.4c0.6-25,30.6-40.7,30.6-40.7s-116.7-17-162.5,109.1c-37,126,78.1,175.3,78.1,175.3
			c-1.7-1-33.1-23.5-38.7-78.6c-4.2-36.8,18-71.5,18-71.5l3.7,2.3c0,0-19.5,25.9-17.3,69.1c3.1,52.1,40.5,77.7,40.5,77.7
			s-25.7-29.6-9.2-67.6c4.4-10.1,12.2-18,23.3-27c23-12.7,39.4-20.5,49.5-54.5C823.4,292.8,784.5,285.6,789.5,249.4 M740.5,334.9
			l-9.9,15.5l-3.6-18l-17.8-4.6l16-9l-1.1-18.3l13.5,12.5l17.1-6.7l-7.7,16.6l11.7,14.1L740.5,334.9z"/>
	</g>
</g>
</svg>
