<?xml version="1.0" ?><svg data-name="Layer 1" id="Layer_1" viewBox="0 0 512 512" xmlns="http://www.w3.org/2000/svg"><defs><style>.cls-1{fill:#261c00;}.cls-2{fill:#fff8dd;}</style></defs><rect class="cls-1" height="419.17" rx="96.06" width="432" x="40" y="46.42"/><rect class="cls-1" height="379.17" rx="76.06" width="392" x="60" y="66.42"/><path class="cls-2" d="M153.12,167.21c0-1.52.26-2.28,1.53-2.54,8.89-.25,33.78-.76,51.82-.76,54.11,0,63,27.69,63,44.46,0,17.27-9.15,27.69-15.5,32.26,9.4,4.83,23.63,15.75,23.63,39.12,0,31-26.93,51.57-70.62,51.57-24.64,0-42.68-.26-52.08-.51a2,2,0,0,1-1.78-2.29Zm34.55,62.24H205a213.72,213.72,0,0,1,22.6,1.27c4.58-4.06,7.62-8.89,7.62-17.27,0-13-9.65-19.82-29-19.82-7.87,0-13,.26-18.54.51Zm0,71.89c5.34.25,10.92.51,18.54.51C228.06,302.1,241,295,241,280.26c0-8.64-3.56-16-15.5-19.05a69.33,69.33,0,0,0-16-1.53H187.67Z"/><path class="cls-2" d="M328.14,204.56a2.81,2.81,0,0,1,3.05,2.28,48.65,48.65,0,0,1,2.8,14.23,53,53,0,0,1,40.39-19c1.52,0,2,.5,2,2v31.24c0,1.27-.51,1.78-2.29,1.78-18.29-.76-33,4.83-38.36,10.93l-.25,80.78c0,1.52-.51,2-2.29,2H302.74c-2,0-2.54-.76-2.54-2.29V240.88c0-10.92-.25-25.65-1.27-34.55,0-1.27.25-1.77,1.52-1.77Z"/></svg>