<?xml version="1.0" ?><svg data-name="Layer 1" id="Layer_1" viewBox="0 0 512 512" xmlns="http://www.w3.org/2000/svg"><defs><style>.cls-1{fill:#26003b;}.cls-2{fill:#f9efff;}</style></defs><rect class="cls-1" height="419.17" rx="96.06" width="432" x="40" y="46.42"/><rect class="cls-1" height="379.17" rx="76.06" width="392" x="60" y="66.42"/><path class="cls-2" d="M248.26,325.22c0,1.78-.51,3-2,3.56-8.38,3-21.08,4.57-35.31,4.57-49.28,0-87.63-29.21-87.63-84.85,0-51.56,35.56-86.62,91.7-86.62,16,0,26.42,1.27,33,4.32a2.88,2.88,0,0,1,1.78,3.05v27.69c0,2.28-1.27,2.28-2.29,1.77-8.38-4.06-20.32-5.59-33-5.59-34,0-54.87,21.09-54.87,54.11,0,39.63,29,54.62,55.63,54.62,12.45,0,21.85-1,31-4.06,1.27-.51,2-.26,2,1.27Z"/><path class="cls-2" d="M306.17,328.78c0,1.52-.51,2-2,2H272.89c-1.52,0-2-.76-2-2V152.48c0-1,.26-1.78,2-1.78h31.25c1.52,0,2,.51,2,1.78v60c9.15-6.1,19.05-10.41,33.28-10.41,19.81,0,42.93,10.16,42.93,51.06v75.44c0,1.53-.51,2.29-2.29,2.29H349.61c-1.78,0-2.54-.76-2.54-2.29V256.63c0-16-6.86-23.88-20.07-23.88a34.94,34.94,0,0,0-20.83,6.35Z"/></svg>