<?xml version="1.0" ?><svg data-name="Layer 1" id="Layer_1" viewBox="0 0 512 512" xmlns="http://www.w3.org/2000/svg"><defs><style>.cls-1{fill:#150c01;}.cls-2{fill:#ff9100;}</style></defs><rect class="cls-1" height="419.17" rx="96.06" width="432" x="40" y="46.42"/><rect class="cls-1" height="379.17" rx="76.06" width="392" x="60" y="66.42"/><path class="cls-2" d="M192.24,328.52a2,2,0,0,1-2.28,2.29H158.71c-1.27,0-1.78-.76-1.78-2.29V166.45c0-1.52.51-2,1.78-2h100.6c1.77,0,2.28.51,2.54,2.29l2.79,27.18c.25,1.52-.51,2.28-2.29,2.28H192.24v38.62h63.25c1.53,0,2,.5,2,2v27.69c0,1.52-.51,2-1.78,2H192.24Z"/><path class="cls-2" d="M324.59,230.21c-11.94,0-15.75,4.32-15.75,8.64s3.3,7.62,18,13.21c30.74,11.18,40.39,23.12,40.39,41.15,0,24.13-18.79,40.14-52.33,40.14-15.49,0-28.95-2.8-36.83-7.11a3,3,0,0,1-1.78-2.8V296c0-1.53,1-2.29,2-1.53,11.69,7.37,25.92,10.16,37.35,10.16,11.94,0,17.27-3.3,17.27-8.63,0-4.83-4.32-8.39-19.31-14-28.7-10.67-38.1-22.87-38.1-41.16,0-19.81,16-38.86,49.54-38.86,15,0,26.67,2,33,5.08a3.26,3.26,0,0,1,1.78,3.3v25.4c0,1.53-1,2.54-2.54,1.78C349,233.26,336,230.21,324.59,230.21Z"/></svg>