<?xml version="1.0" ?><svg data-name="Layer 1" id="Layer_1" viewBox="0 0 512 512" xmlns="http://www.w3.org/2000/svg"><defs><style>.cls-1{fill:#49021f;}.cls-2{fill:#f36;}</style></defs><rect class="cls-1" height="419.17" rx="96.06" width="432" x="40" y="46.42"/><rect class="cls-1" height="379.17" rx="76.06" width="392" x="60" y="66.42"/><path class="cls-2" d="M219.17,328.52c0,1.53-.51,2.29-2.29,2.29h-31c-1.52,0-2-.76-2-2.29V166.71c0-2,.76-2.29,2-2.29h31c1.53,0,2.29.51,2.29,2.29Z"/><path class="cls-2" d="M340.09,327.25c0,1.27-.26,1.78-1.27,2-8.13,3.31-18.55,4.07-28.46,4.07-41.15,0-67.06-27.69-67.06-65,0-38.11,28.71-66.3,71.89-66.3,12.45,0,19.31,1.27,23.37,2.79,1.27.51,1.53,1.27,1.53,2.79l-.26,26.17c0,1.78-1,2-2,1.78-4.83-1.78-11.94-3.05-21.34-3.05-21.34,0-36.83,11.68-36.83,34.55,0,26.42,19.56,35.05,37.34,35.05,8.89,0,16.76-1,21.08-2.28,1.53-.51,2,0,2,1Z"/></svg>