<?xml version="1.0" ?><svg data-name="Layer 1" id="Layer_1" viewBox="0 0 512 512" xmlns="http://www.w3.org/2000/svg"><defs><style>.cls-1{fill:#49021f;}.cls-2{fill:#f36;}</style></defs><rect class="cls-1" height="419.17" rx="96.06" width="432" x="40" y="46.42"/><rect class="cls-1" height="379.17" rx="76.06" width="392" x="60" y="66.42"/><path class="cls-2" d="M204.44,328.52c0,1.53-.51,2.29-2.29,2.29h-31c-1.53,0-2-.76-2-2.29V166.71c0-2,.76-2.29,2-2.29h31c1.52,0,2.29.51,2.29,2.29Z"/><path class="cls-2" d="M228.57,268.83c0-36.33,27.18-66.81,73.67-66.81,2,0,4.57.25,8.38.5v-50a1.61,1.61,0,0,1,1.78-1.78h32c1.27,0,1.53.51,1.53,1.53V302.36a141.81,141.81,0,0,0,1,18.54c0,1.27-.26,1.78-1.78,2.29a127.77,127.77,0,0,1-50.05,10.16C257.53,333.35,228.57,312,228.57,268.83Zm82.05-36.08c-2.54-1-5.84-1.27-9.4-1.27-19.56,0-36.33,11.94-36.33,35.57,0,25.15,14.48,36.07,33.79,36.07,4.32,0,8.38-.25,11.94-1.53Z"/></svg>