<?xml version="1.0" ?><svg data-name="Layer 1" id="Layer_1" viewBox="0 0 512 512" xmlns="http://www.w3.org/2000/svg"><defs><style>.cls-1{fill:#262002;}.cls-2{fill:#fff7cc;}</style></defs><rect class="cls-1" height="419.17" rx="96.06" width="432" x="40" y="46.42"/><rect class="cls-1" height="379.17" rx="76.06" width="392" x="60" y="66.42"/><path class="cls-2" d="M132.42,324.46c-1.27-.76-1.78-2-1.78-4.07V290.16c0-1.27,1-2,2-1.27a87.28,87.28,0,0,0,46,13.21c19.31,0,26.93-6.6,26.93-15.49,0-8.13-5.84-14-23.12-21.34l-12.7-5.34c-31.24-13.21-39.88-29-39.88-48.77,0-27.43,20.83-49.28,61.22-49.28,16,0,30.49,2,39.63,6.6,1.27.77,1.52,1.78,1.52,3.31v28.45c0,1-.76,2.28-2.28,1.27-10.16-5.84-24.13-8.39-39.12-8.39-19.56,0-26.42,6.61-26.42,15,0,7.88,5.33,13.21,24.39,20.83l9.39,3.81c33.79,14,43.19,30,43.19,50.55,0,30.74-24.9,50.05-64,50.05C158.59,333.35,143.09,330.05,132.42,324.46Z"/><path class="cls-2" d="M382.89,263.75c0,46.48-38.11,69.6-77.73,69.6a33.34,33.34,0,0,1-4.83-.26v43.19c0,1.27-.25,2-2,2.29-10.42,1-30,2.79-31.5,3-1.53,0-1.78-.5-1.78-1.77V230.47c0-3.56-.51-13-.76-16.77a1.19,1.19,0,0,1,1-1.27c13-4.32,31.25-10.41,53.35-10.41C362.82,202,382.89,232,382.89,263.75ZM300.33,234v69.35a42.19,42.19,0,0,0,8.13.51c17.53,0,38.1-10.16,38.1-37.85,0-21.85-11.18-34-31-34A49.3,49.3,0,0,0,300.33,234Z"/></svg>