<?xml version="1.0" ?><svg data-name="Layer 1" id="Layer_1" viewBox="0 0 512 512" xmlns="http://www.w3.org/2000/svg"><defs><style>.cls-1{fill:#000a1c;}.cls-2{fill:#fff;}</style></defs><rect class="cls-1" height="419.17" rx="96.06" width="432" x="40" y="46.42"/><rect class="cls-1" height="379.17" rx="76.06" width="392" x="60" y="66.42"/><path class="cls-2" d="M161.38,324.46c-1.27-.76-1.78-2-1.78-4.07V290.16c0-1.27,1-2,2-1.27a87.34,87.34,0,0,0,46,13.21c19.31,0,26.93-6.6,26.93-15.49,0-8.13-5.84-14-23.12-21.34l-12.7-5.34c-31.24-13.21-39.88-29-39.88-48.77,0-27.43,20.83-49.28,61.22-49.28,16,0,30.48,2,39.63,6.6,1.27.77,1.52,1.78,1.52,3.31v28.45c0,1-.76,2.28-2.28,1.27-10.16-5.84-24.14-8.39-39.12-8.39-19.56,0-26.42,6.61-26.42,15,0,7.88,5.33,13.21,24.38,20.83l9.4,3.81c33.79,14,43.19,30,43.19,50.55,0,30.74-24.9,50.05-64,50.05C187.54,333.35,172.05,330.05,161.38,324.46Z"/><path class="cls-2" d="M356.21,326.49c0,1.52-.25,2.79-1.77,3.3-7.12,2.54-13.72,3.56-22.61,3.56-22.1,0-35.06-10.92-35.06-36.33V234H281.53c-1.52-.25-2-.76-2-2.28v-24.9c0-1.78.51-2.28,2.28-2.28H297c.25-8.64,1.27-23.63,2.54-30.74a2.69,2.69,0,0,1,2.28-2.29l29.72-3.81c1.27-.25,2-.25,2,1.53-.77,7.87-1.27,22.86-1.27,35.31h23.37c1.52,0,2,.5,2,2v25.66c0,1.27-.51,1.52-1.78,1.77H332.08v54.37c0,11.17,3.3,16.25,13.72,16.25a49.89,49.89,0,0,0,8.64-1c1,0,1.77.25,1.77,1.78Z"/></svg>