<?xml version="1.0" ?><svg data-name="Layer 1" id="Layer_1" viewBox="0 0 512 512" xmlns="http://www.w3.org/2000/svg"><defs><style>.cls-1{fill:#262002;}.cls-2{fill:#fff7cc;}</style></defs><rect class="cls-1" height="419.17" rx="96.06" width="432" x="40" y="46.42"/><rect class="cls-1" height="379.17" rx="76.06" width="392" x="60" y="66.42"/><path class="cls-2" d="M143.43,324.46c-1.27-.76-1.78-2-1.78-4.07V290.16c0-1.27,1-2,2-1.27a87.31,87.31,0,0,0,46,13.21c19.31,0,26.93-6.6,26.93-15.49,0-8.13-5.84-14-23.12-21.34l-12.7-5.34c-31.25-13.21-39.88-29-39.88-48.77,0-27.43,20.83-49.28,61.22-49.28,16,0,30.48,2,39.63,6.6,1.27.77,1.52,1.78,1.52,3.31v28.45c0,1-.76,2.28-2.29,1.27-10.16-5.84-24.13-8.39-39.12-8.39-19.56,0-26.41,6.61-26.41,15,0,7.88,5.33,13.21,24.38,20.83l9.4,3.81c33.79,14,43.19,30,43.19,50.55,0,30.74-24.9,50.05-64,50.05C169.59,333.35,154.1,330.05,143.43,324.46Z"/><path class="cls-2" d="M290.51,204.56a2.64,2.64,0,0,1,2.54,1.77c14.48,43.44,22.1,69.86,25.65,83.07,8.13-26.93,16-51.31,25.91-83.07a2.65,2.65,0,0,1,2.8-1.77h30.23c1.78,0,2,1,1.78,2.28-18.29,56.91-46.49,127-65.29,170.46-.51,1-1.27,1.77-3.56,1.77l-32,2.54c-1.53,0-2-.76-1.27-2.28,7.36-15.24,15-32,23.11-51.06.76-1.78,1-2.54.26-4.32-7.12-17.53-31-77.48-46-117.36-.76-1.27.25-2,1.52-2Z"/></svg>