<?xml version="1.0" encoding="utf-8"?>
<!-- Generator: Adobe Illustrator 24.3.0, SVG Export Plug-In . SVG Version: 6.00 Build 0)  -->
<svg version="1.1" id="Layer_1" xmlns="http://www.w3.org/2000/svg" xmlns:xlink="http://www.w3.org/1999/xlink" x="0px" y="0px"
	 width="24px" height="16px" viewBox="0 0 24 16" style="enable-background:new 0 0 24 16;" xml:space="preserve">
<style type="text/css">
	.st0{fill:#FFFFFF;}
	.st1{fill:#C60C30;}
	.st2{fill:#003478;}
</style>
<rect id="_19" class="st0" width="24" height="16"/>
<rect id="_18" x="3.9" y="2.6" transform="matrix(0.5547 -0.8321 0.8321 0.5547 -0.6454 6.6587)" width="4" height="2.7"/>
<rect id="_17" x="3.1" y="3.5" transform="matrix(0.5547 -0.8321 0.8321 0.5547 -0.5997 6.1889)" class="st0" width="4.7" height="0.3"/>
<rect id="_16" x="4" y="4" transform="matrix(0.5547 -0.8321 0.8321 0.5547 -0.6908 7.1282)" class="st0" width="4.7" height="0.3"/>
<rect id="_15" x="16.1" y="10.7" transform="matrix(0.5547 -0.8321 0.8321 0.5547 -1.9803 20.4355)" width="4" height="2.7"/>
<rect id="_14" x="15.4" y="11.6" transform="matrix(0.5547 -0.8321 0.8321 0.5547 -1.9348 19.9656)" class="st0" width="4.7" height="0.3"/>
<rect id="_13" x="16.2" y="12.2" transform="matrix(0.5547 -0.8321 0.8321 0.5547 -2.0258 20.9051)" class="st0" width="4.7" height="0.3"/>
<rect id="_12" x="17.9" y="10.4" transform="matrix(0.5547 -0.8321 0.8321 0.5547 -1.9805 20.4354)" class="st0" width="0.3" height="3.3"/>
<circle id="_11" class="st1" cx="12" cy="8" r="4"/>
<path id="_10" class="st2" d="M8.7,5.8C8.1,6.7,8.3,7.9,9.2,8.6S11.4,8.9,12,8c0,0,0,0,0,0c0.6-0.9,1.8-1.2,2.8-0.6
	c0.9,0.6,1.2,1.8,0.6,2.8c0,0,0,0,0,0c-1.2,1.8-3.7,2.3-5.5,1.1S7.4,7.6,8.7,5.8"/>
<rect id="_9" x="4.5" y="10.1" transform="matrix(0.8336 -0.5524 0.5524 0.8336 -5.6976 5.2288)" width="2.7" height="4"/>
<rect id="_8" x="5.3" y="10" transform="matrix(0.8321 -0.5547 0.5547 0.8321 -5.9271 5.1144)" class="st0" width="0.3" height="4.7"/>
<rect id="_7" x="6.1" y="9.5" transform="matrix(0.8336 -0.5524 0.5524 0.8336 -5.4765 5.4131)" class="st0" width="0.3" height="4.6"/>
<rect id="_6" x="16.8" y="1.9" transform="matrix(0.8321 -0.5547 0.5547 0.8321 0.859 10.7014)" width="2.7" height="4"/>
<rect id="_5" x="17.5" y="1.9" transform="matrix(0.8321 -0.5547 0.5547 0.8321 0.6352 10.5172)" class="st0" width="0.3" height="4.7"/>
<rect id="_4" x="18.4" y="1.3" transform="matrix(0.8321 -0.5547 0.5547 0.8321 1.0826 10.8856)" class="st0" width="0.3" height="4.7"/>
<rect id="_3" x="16.4" y="3.8" transform="matrix(0.8321 -0.5547 0.5547 0.8321 0.8593 10.7011)" class="st0" width="3.3" height="0.3"/>
<rect id="_2" x="17.8" y="3.6" transform="matrix(0.8321 -0.5547 0.5547 0.8321 0.8586 10.7017)" width="0.7" height="0.7"/>
<rect id="_1" x="5.2" y="11.9" transform="matrix(0.8321 -0.5547 0.5547 0.8321 -5.7031 5.2986)" class="st0" width="1.3" height="0.3"/>
</svg>
