<?xml version="1.0" encoding="utf-8"?>
<!-- Generator: Adobe Illustrator 24.3.0, SVG Export Plug-In . SVG Version: 6.00 Build 0)  -->
<svg version="1.1" id="Layer_1" xmlns="http://www.w3.org/2000/svg" xmlns:xlink="http://www.w3.org/1999/xlink" x="0px" y="0px"
	 width="24px" height="16px" viewBox="0 0 24 16" style="enable-background:new 0 0 24 16;" xml:space="preserve">
<style type="text/css">
	.st0{clip-path:url(#SVGID_2_);}
	.st1{fill:#DB1F26;}
	.st2{fill:#DD2D26;}
	.st3{fill:#FDDD00;}
</style>
<g>
	<defs>
		<rect id="SVGID_1_" x="0.1" y="0.2" width="24" height="16"/>
	</defs>
	<clipPath id="SVGID_2_">
		<use xlink:href="#SVGID_1_"  style="overflow:visible;"/>
	</clipPath>
	<g class="st0">
		<rect x="-1.2" y="-1.4" class="st1" width="26.5" height="19.2"/>
		<rect x="0.1" y="0.2" class="st2" width="24" height="16"/>
		<polygon class="st3" points="4.7,4.7 6,3.7 4.3,3.7 3.8,2.2 3.3,3.7 1.6,3.7 3,4.7 2.5,6.3 3.8,5.3 5.2,6.3 		"/>
		<polygon class="st3" points="7.9,2.3 8.4,2.2 7.9,2 8,1.4 7.6,1.9 7.1,1.6 7.4,2.1 7,2.5 7.5,2.4 7.8,2.9 		"/>
		<polygon class="st3" points="9.3,4 9.9,4.1 9.5,3.7 9.7,3.2 9.2,3.4 8.8,3 8.9,3.6 8.4,3.8 9,3.9 9.1,4.5 		"/>
		<polygon class="st3" points="9.5,6.1 9.9,5.7 9.3,5.8 9.2,5.2 9,5.8 8.4,5.8 8.9,6.1 8.8,6.6 9.2,6.3 9.7,6.6 		"/>
		<polygon class="st3" points="7.9,7.7 8.4,7.6 7.9,7.4 7.9,6.8 7.6,7.3 7.1,7.1 7.4,7.5 7,8 7.6,7.8 7.9,8.3 		"/>
	</g>
</g>
</svg>
