<svg version="1.2" xmlns="http://www.w3.org/2000/svg" viewBox="0 0 128 128" width="20" height="20">
	<title>microsoft_office_access_logo_icon_145727-svg</title>
	<style>
		.s0 { fill: #891323 } 
		.s1 { fill: #af2131 } 
		.s2 { fill: #c94e60 } 
		.s3 { fill: #e08195 } 
		.s4 { fill: #b42839 } 
		.s5 { fill: #ffffff } 
		.s6 { opacity: .2;fill: #000000 } 
	</style>
	<path id="Layer" class="s0" d="m127.7 81.8v29.8c0 8-21.9 14.5-48.9 14.5-27 0-48.9-6.5-48.9-14.5v-29.8c0 8 21.9 14.5 48.9 14.5 27 0 48.9-6.5 48.9-14.5z"/>
	<path id="Layer" class="s1" d="m127.7 49.7v32.2c0 8-21.9 14.5-48.9 14.5-27 0-48.9-6.5-48.9-14.5v-32.1c0 8 21.9 14.5 48.9 14.5 27 0 48.9-6.5 48.9-14.6z"/>
	<path id="Layer" class="s2" d="m127.7 16.2v33.6c0 8-21.9 14.5-48.9 14.5-27 0-48.9-6.5-48.9-14.5v-33.5c0 8 21.9 14.5 48.9 14.5 27 0 48.9-6.5 48.9-14.6z"/>
	<path id="Layer" class="s3" d="m78.8 30.7c-27 0-48.9-6.5-48.9-14.5 0-8 21.9-14.5 48.9-14.5 27 0 48.9 6.5 48.9 14.5 0 8-21.9 14.5-48.9 14.5z"/>
	<path id="Layer" class="s4" d="m59.5 96.5h-53c-3.5 0-6.4-2.9-6.4-6.4v-52.2c0-3.5 2.9-6.4 6.4-6.4h53c3.5 0 6.4 2.9 6.4 6.4v52.2c0 3.5-2.8 6.4-6.4 6.4z"/>
	<g id="Layer">
		<path id="Layer" fill-rule="evenodd" class="s5" d="m28.4 72.2l-3.1 10.2h-6.9l11.7-35.9h8.5l11.8 35.9h-7.1l-3.3-10.2zm10.4-5v0.1zm-2.8-8.8c-0.7-2.2-1.3-4.6-1.8-6.7h-0.2c-0.5 2.1-1.1 4.6-1.7 6.7l-2.8 8.8h9.3z"/>
	</g>
	<path id="Layer" class="s6" d="m71.4 43.6v52.2c0 3.5-2.9 6.4-6.4 6.4h-35.2v-5.7h29.8c3.5 0 6.4-2.9 6.4-6.4v-52.2q0-0.3 0-0.6c3.1 0.4 5.4 3.1 5.4 6.3z"/>
</svg>