<svg version="1.2" xmlns="http://www.w3.org/2000/svg" viewBox="0 0 128 128" width="20" height="20">
	<title>microsoft_office_onenote_logo_icon_145725-svg</title>
	<style>
		.s0 { fill: #ca64ea } 
		.s1 { fill: #7e1faf } 
		.s2 { fill: #ffffff } 
		.s3 { fill: #ae4bd5 } 
		.s4 { fill: #9332bf } 
		.s5 { fill: #7719aa } 
		.s6 { opacity: .2;fill: #000000 } 
	</style>
	<path id="Layer" class="s0" d="m122.1 123.7h-86c-3.2 0-5.9-2.6-5.9-5.9v-107c0-3.2 2.6-5.9 5.9-5.9h86.1c3.2 0 5.9 2.6 5.9 5.9v107c-0.1 3.3-2.7 5.9-6 5.9z"/>
	<path id="Layer" class="s1" d="m59.5 96.5h-53c-3.5 0-6.4-2.9-6.4-6.4v-52.2c0-3.5 2.9-6.4 6.4-6.4h53c3.5 0 6.4 2.9 6.4 6.4v52.2c0 3.5-2.8 6.4-6.4 6.4z"/>
	<g id="Layer">
		<path id="Layer" class="s2" d="m19.3 82.4v-35.9h7.6l9.4 15.4c2.4 4 4.5 8.1 6.2 12l0.1-0.1c-0.5-4.7-0.6-9.3-0.6-14.8v-12.5h6.2v35.9h-6.9l-9.5-15.8c-2.3-3.9-4.7-8.3-6.5-12.3h-0.3c0.3 4.6 0.4 9.4 0.4 15.3v12.8z"/>
	</g>
	<path id="Layer" class="s3" d="m98.5 35.2h29.5v29.5h-29.5z"/>
	<path id="Layer" class="s4" d="m98.5 64.8h29.5v29.5h-29.5z"/>
	<path id="Layer" class="s5" d="m98.5 94.2h29.5v23.7c0 3-2.3 5.5-5.3 5.8h-24.2z"/>
	<path id="Layer" class="s6" d="m71.2 43.6v52.2c0 3.5-2.9 6.4-6.4 6.4h-34.6v-5.7h29.3c3.5 0 6.4-2.9 6.4-6.4v-52.2q0-0.3 0-0.6c3 0.4 5.3 3.1 5.3 6.3z"/>
</svg>