<svg version="1.2" xmlns="http://www.w3.org/2000/svg" viewBox="0 0 128 128" width="20" height="20">
	<title>microsoft_office_word_logo_icon_145724-svg</title>
	<style>
		.s0 { fill: #41a5ed } 
		.s1 { fill: #2c7bd5 } 
		.s2 { fill: #195abe } 
		.s3 { fill: #103e91 } 
		.s4 { fill: #2166c3 } 
		.s5 { fill: #ffffff } 
		.s6 { opacity: .2;fill: #000000 } 
	</style>
	<path id="Layer" class="s0" d="m128 34.2h-98.4v-23.9c0-3.2 2.6-5.8 5.8-5.8h86.7c3.2 0 5.8 2.6 5.8 5.8v23.9z"/>
	<path id="Layer" class="s1" d="m29.6 34.2h98.4v29.8h-98.4z"/>
	<path id="Layer" class="s2" d="m29.6 64h98.4v29.8h-98.4z"/>
	<path id="Layer" class="s3" d="m122.2 123.5h-86.7c-3.2 0-5.8-2.6-5.8-5.8v-23.9h98.3v23.9c0 3.2-2.6 5.8-5.8 5.8z"/>
	<path id="Layer" class="s4" d="m59.5 96.5h-53c-3.5 0-6.4-2.9-6.4-6.4v-52.2c0-3.5 2.9-6.4 6.4-6.4h53c3.5 0 6.4 2.9 6.4 6.4v52.2c0 3.5-2.8 6.4-6.4 6.4z"/>
	<g id="Layer">
		<path id="Layer" class="s5" d="m19.3 82.4l-8.9-35.9h7.1l3.5 16.3c0.9 4.4 1.8 8.9 2.4 12.5h0.1c0.6-3.8 1.6-8 2.6-12.6l3.9-16.2h7l3.6 16.5c0.9 4.3 1.7 8.2 2.2 12.1h0.1c0.6-4 1.5-8 2.5-12.4l3.8-16.2h6.8l-9.8 35.9h-7.2l-3.8-16.9c-0.9-4-1.6-7.4-2.1-11.3h-0.1c-0.6 3.8-1.3 7.3-2.4 11.4l-4.2 16.9h-7.1z"/>
	</g>
	<path id="Layer" class="s6" d="m71.3 43.6v52.2c0 3.5-2.9 6.4-6.4 6.4h-35.2v-5.7h29.8c3.5 0 6.4-2.9 6.4-6.4v-52.2q0-0.3 0-0.6c3.1 0.4 5.4 3.1 5.4 6.3z"/>
</svg>